{
    "asset" : {
        "generator" : "Khronos glTF Blender I/O v1.5.17",
        "version" : "2.0"
    },
    "extensionsUsed" : [
        "KHR_lights_punctual"
    ],
    "extensionsRequired" : [
        "KHR_lights_punctual"
    ],
    "extensions" : {
        "KHR_lights_punctual" : {
            "lights" : [
                {
                    "color" : [
                        0.7742844820022583,
                        0.5814740061759949,
                        1
                    ],
                    "intensity" : 0.8300000429153442,
                    "type" : "directional",
                    "name" : "Sun"
                },
                {
                    "color" : [
                        0.17918603122234344,
                        0.14849260449409485,
                        1
                    ],
                    "intensity" : 998,
                    "type" : "point",
                    "range" : 100,
                    "name" : "Point.003"
                },
                {
                    "color" : [
                        1,
                        0.9350708723068237,
                        0.1414133757352829
                    ],
                    "intensity" : 998,
                    "type" : "point",
                    "range" : 100,
                    "name" : "Point.004"
                },
                {
                    "color" : [
                        1,
                        1,
                        1
                    ],
                    "intensity" : 6.060000419616699,
                    "type" : "directional",
                    "name" : "Sun.001"
                }
            ]
        }
    },
    "scene" : 0,
    "scenes" : [
        {
            "name" : "Scene",
            "nodes" : [
                1,
                3,
                5,
                7,
                8
            ]
        }
    ],
    "nodes" : [
        {
            "extensions" : {
                "KHR_lights_punctual" : {
                    "light" : 0
                }
            },
            "name" : "backsun_Orientation",
            "rotation" : [
                -0.7071067690849304,
                0,
                0,
                0.7071067690849304
            ]
        },
        {
            "children" : [
                0
            ],
            "name" : "backsun",
            "rotation" : [
                0.32428446412086487,
                -0.5933874845504761,
                0.2209230661392212,
                0.7027971744537354
            ],
            "translation" : [
                -225.6813507080078,
                239.78248596191406,
                52.313297271728516
            ]
        },
        {
            "extensions" : {
                "KHR_lights_punctual" : {
                    "light" : 1
                }
            },
            "name" : "Point.003_Orientation",
            "rotation" : [
                -0.7071067690849304,
                0,
                0,
                0.7071067690849304
            ]
        },
        {
            "children" : [
                2
            ],
            "name" : "Point.003",
            "translation" : [
                16.092628479003906,
                2.1244282722473145,
                -16.825008392333984
            ]
        },
        {
            "extensions" : {
                "KHR_lights_punctual" : {
                    "light" : 2
                }
            },
            "name" : "Point.004_Orientation",
            "rotation" : [
                -0.7071067690849304,
                0,
                0,
                0.7071067690849304
            ]
        },
        {
            "children" : [
                4
            ],
            "name" : "Point.004",
            "translation" : [
                14.185179710388184,
                2.74967885017395,
                -7.783404350280762
            ]
        },
        {
            "extensions" : {
                "KHR_lights_punctual" : {
                    "light" : 3
                }
            },
            "name" : "Sun_Orientation",
            "rotation" : [
                -0.7071067690849304,
                0,
                0,
                0.7071067690849304
            ]
        },
        {
            "children" : [
                6
            ],
            "name" : "Sun",
            "rotation" : [
                0.15422460436820984,
                0.7267136573791504,
                -0.5636656284332275,
                0.36108604073524475
            ],
            "translation" : [
                237.60833740234375,
                150.3336944580078,
                -260.74066162109375
            ]
        },
        {
            "mesh" : 0,
            "name" : "Level_generator"
        }
    ],
    "materials" : [
        {
            "emissiveTexture" : {
                "index" : 0
            },
            "name" : "Normal_base.002",
            "normalTexture" : {
                "index" : 1
            },
            "pbrMetallicRoughness" : {
                "baseColorTexture" : {
                    "index" : 2
                },
                "metallicFactor" : 0,
                "metallicRoughnessTexture" : {
                    "index" : 3
                },
                "roughnessFactor" : 0.30000001192092896
            }
        },
        {
			"emissiveFactor" : [
                1,
                1,
                1
            ],
            "emissiveTexture" : {
                "index" : 4
            },
            "name" : "Normal_emissive.002",
            "pbrMetallicRoughness" : {
                "baseColorFactor" : [
                    0.800000011920929,
                    0.800000011920929,
                    0.800000011920929,
                    1
                ],
                "metallicFactor" : 0,
                "roughnessFactor" : 0.5
            }
        }
    ],
    "meshes" : [
        {
            "name" : "Mesh_0.002",
            "primitives" : [
                {
                    "attributes" : {
                        "POSITION" : 0,
                        "NORMAL" : 1,
                        "TANGENT" : 2,
                        "TEXCOORD_0" : 3,
                        "COLOR_0" : 4
                    },
                    "indices" : 5,
                    "material" : 0
                },
                {
                    "attributes" : {
                        "POSITION" : 6,
                        "NORMAL" : 7,
                        "TANGENT" : 8,
                        "TEXCOORD_0" : 9,
                        "COLOR_0" : 10
                    },
                    "indices" : 11,
                    "material" : 1
                }
            ]
        }
    ],
    "textures" : [
        {
            "sampler" : 0,
            "source" : 0
        },
        {
            "sampler" : 0,
            "source" : 1
        },
        {
            "sampler" : 0,
            "source" : 2
        },
        {
            "sampler" : 0,
            "source" : 3
        },
        {
            "sampler" : 0,
            "source" : 4
        }
    ],
    "images" : [
        {
            "mimeType" : "image/png",
            "name" : "Emissive_map_0",
            "uri" : "Emissive_map_0.png"
        },
        {
            "mimeType" : "image/png",
            "name" : "normaltest",
            "uri" : "normaltest.png"
        },
        {
            "mimeType" : "image/png",
            "name" : "flat_C",
            "uri" : "flat_C.png"
        },
        {
            "mimeType" : "image/png",
            "name" : "flat_C1",
            "uri" : "flat_C1.png"
        },
        {
            "mimeType" : "image/png",
            "name" : "Emissive_map_1",
            "uri" : "Emissive_map_1.png"
        }
    ],
    "accessors" : [
        {
            "bufferView" : 0,
            "componentType" : 5126,
            "count" : 41763,
            "max" : [
                52.5,
                2.1399998664855957,
                38
            ],
            "min" : [
                -31.5,
                -18,
                -62
            ],
            "type" : "VEC3"
        },
        {
            "bufferView" : 1,
            "componentType" : 5126,
            "count" : 41763,
            "type" : "VEC3"
        },
        {
            "bufferView" : 2,
            "componentType" : 5126,
            "count" : 41763,
            "type" : "VEC4"
        },
        {
            "bufferView" : 3,
            "componentType" : 5126,
            "count" : 41763,
            "type" : "VEC2"
        },
        {
            "bufferView" : 4,
            "componentType" : 5123,
            "count" : 41763,
            "normalized" : true,
            "type" : "VEC4"
        },
        {
            "bufferView" : 5,
            "componentType" : 5123,
            "count" : 41763,
            "type" : "SCALAR"
        },
        {
            "bufferView" : 6,
            "componentType" : 5126,
            "count" : 5598,
            "max" : [
                18,
                2.1399998664855957,
                -3
            ],
            "min" : [
                3,
                -8.942999839782715,
                -21
            ],
            "type" : "VEC3"
        },
        {
            "bufferView" : 7,
            "componentType" : 5126,
            "count" : 5598,
            "type" : "VEC3"
        },
        {
            "bufferView" : 8,
            "componentType" : 5126,
            "count" : 5598,
            "type" : "VEC4"
        },
        {
            "bufferView" : 9,
            "componentType" : 5126,
            "count" : 5598,
            "type" : "VEC2"
        },
        {
            "bufferView" : 10,
            "componentType" : 5123,
            "count" : 5598,
            "normalized" : true,
            "type" : "VEC4"
        },
        {
            "bufferView" : 11,
            "componentType" : 5123,
            "count" : 5598,
            "type" : "SCALAR"
        }
    ],
    "bufferViews" : [
        {
            "buffer" : 0,
            "byteLength" : 501156,
            "byteOffset" : 0
        },
        {
            "buffer" : 0,
            "byteLength" : 501156,
            "byteOffset" : 501156
        },
        {
            "buffer" : 0,
            "byteLength" : 668208,
            "byteOffset" : 1002312
        },
        {
            "buffer" : 0,
            "byteLength" : 334104,
            "byteOffset" : 1670520
        },
        {
            "buffer" : 0,
            "byteLength" : 334104,
            "byteOffset" : 2004624
        },
        {
            "buffer" : 0,
            "byteLength" : 83526,
            "byteOffset" : 2338728
        },
        {
            "buffer" : 0,
            "byteLength" : 67176,
            "byteOffset" : 2422256
        },
        {
            "buffer" : 0,
            "byteLength" : 67176,
            "byteOffset" : 2489432
        },
        {
            "buffer" : 0,
            "byteLength" : 89568,
            "byteOffset" : 2556608
        },
        {
            "buffer" : 0,
            "byteLength" : 44784,
            "byteOffset" : 2646176
        },
        {
            "buffer" : 0,
            "byteLength" : 44784,
            "byteOffset" : 2690960
        },
        {
            "buffer" : 0,
            "byteLength" : 11196,
            "byteOffset" : 2735744
        }
    ],
    "samplers" : [
        {
            "magFilter" : 9729,
            "minFilter" : 9987
        }
    ],
    "buffers" : [
        {
            "byteLength" : 2746940,
            "uri" : "Level1.bin"
        }
    ]
}
