{
    "asset" : {
        "generator" : "Khronos glTF Blender I/O v1.5.17",
        "version" : "2.0"
    },
    "scene" : 0,
    "scenes" : [
        {
            "name" : "Scene",
            "nodes" : [
                0,
                1
            ]
        }
    ],
    "nodes" : [
        {
            "mesh" : 0,
            "name" : "polySurface9",
            "rotation" : [
                0.7071068286895752,
                0,
                0,
                0.7071067094802856
            ],
            "scale" : [
                0.009999999776482582,
                0.009999999776482582,
                0.009999999776482582
            ]
        },
        {
            "mesh" : 1,
            "name" : "polySurface26",
            "rotation" : [
                0.7071068286895752,
                0,
                0,
                0.7071067094802856
            ],
            "scale" : [
                0.009999999776482582,
                0.009999999776482582,
                0.009999999776482582
            ]
        }
    ],
    "materials" : [
        {
            "doubleSided" : true,
            "emissiveFactor" : [
                1,
                1,
                1
            ],
            "emissiveTexture" : {
                "index" : 0
            },
            "name" : "basic_tower4.015",
            "pbrMetallicRoughness" : {
                "baseColorTexture" : {
                    "index" : 1
                },
                "metallicFactor" : 0,
                "roughnessFactor" : 0.4227272868156433
            }
        }
    ],
    "meshes" : [
        {
            "name" : "Mesh",
            "primitives" : [
                {
                    "attributes" : {
                        "POSITION" : 0,
                        "NORMAL" : 1,
                        "TANGENT" : 2,
                        "TEXCOORD_0" : 3
                    },
                    "indices" : 4,
                    "material" : 0
                }
            ]
        },
        {
            "name" : "Mesh.002",
            "primitives" : [
                {
                    "attributes" : {
                        "POSITION" : 5,
                        "NORMAL" : 6,
                        "TANGENT" : 7,
                        "TEXCOORD_0" : 8
                    },
                    "indices" : 9,
                    "material" : 0
                }
            ]
        }
    ],
    "textures" : [
        {
            "sampler" : 0,
            "source" : 0
        },
        {
            "sampler" : 0,
            "source" : 1
        }
    ],
    "images" : [
        {
            "mimeType" : "image/png",
            "name" : "paint2_basic_tower_Emissive",
            "uri" : "paint2_basic_tower_Emissive.png"
        },
        {
            "mimeType" : "image/png",
            "name" : "paint2_basic_tower_AlbedoTransparency",
            "uri" : "paint2_basic_tower_AlbedoTransparency.png"
        }
    ],
    "accessors" : [
        {
            "bufferView" : 0,
            "componentType" : 5126,
            "count" : 2088,
            "max" : [
                125.66616821289062,
                125.6661605834961,
                1.4365577697753906
            ],
            "min" : [
                -125.6661605834961,
                -125.66616821289062,
                -90.25379943847656
            ],
            "type" : "VEC3"
        },
        {
            "bufferView" : 1,
            "componentType" : 5126,
            "count" : 2088,
            "type" : "VEC3"
        },
        {
            "bufferView" : 2,
            "componentType" : 5126,
            "count" : 2088,
            "type" : "VEC4"
        },
        {
            "bufferView" : 3,
            "componentType" : 5126,
            "count" : 2088,
            "type" : "VEC2"
        },
        {
            "bufferView" : 4,
            "componentType" : 5123,
            "count" : 6435,
            "type" : "SCALAR"
        },
        {
            "bufferView" : 5,
            "componentType" : 5126,
            "count" : 4260,
            "max" : [
                73.63555145263672,
                170.39208984375,
                -86.97683715820312
            ],
            "min" : [
                -73.63555145263672,
                -74.43207550048828,
                -164.50753784179688
            ],
            "type" : "VEC3"
        },
        {
            "bufferView" : 6,
            "componentType" : 5126,
            "count" : 4260,
            "type" : "VEC3"
        },
        {
            "bufferView" : 7,
            "componentType" : 5126,
            "count" : 4260,
            "type" : "VEC4"
        },
        {
            "bufferView" : 8,
            "componentType" : 5126,
            "count" : 4260,
            "type" : "VEC2"
        },
        {
            "bufferView" : 9,
            "componentType" : 5123,
            "count" : 4260,
            "type" : "SCALAR"
        }
    ],
    "bufferViews" : [
        {
            "buffer" : 0,
            "byteLength" : 25056,
            "byteOffset" : 0
        },
        {
            "buffer" : 0,
            "byteLength" : 25056,
            "byteOffset" : 25056
        },
        {
            "buffer" : 0,
            "byteLength" : 33408,
            "byteOffset" : 50112
        },
        {
            "buffer" : 0,
            "byteLength" : 16704,
            "byteOffset" : 83520
        },
        {
            "buffer" : 0,
            "byteLength" : 12870,
            "byteOffset" : 100224
        },
        {
            "buffer" : 0,
            "byteLength" : 51120,
            "byteOffset" : 113096
        },
        {
            "buffer" : 0,
            "byteLength" : 51120,
            "byteOffset" : 164216
        },
        {
            "buffer" : 0,
            "byteLength" : 68160,
            "byteOffset" : 215336
        },
        {
            "buffer" : 0,
            "byteLength" : 34080,
            "byteOffset" : 283496
        },
        {
            "buffer" : 0,
            "byteLength" : 8520,
            "byteOffset" : 317576
        }
    ],
    "samplers" : [
        {
            "magFilter" : 9729,
            "minFilter" : 9987
        }
    ],
    "buffers" : [
        {
            "byteLength" : 326096,
            "uri" : "Basic_turret.bin"
        }
    ]
}
