{
    "asset" : {
        "generator" : "Khronos glTF Blender I/O v1.5.17",
        "version" : "2.0"
    },
    "scene" : 0,
    "scenes" : [
        {
            "name" : "Scene",
            "nodes" : [
                0,
                1,
                2
            ]
        }
    ],
    "nodes" : [
        {
            "mesh" : 0,
            "name" : "lazer_lvl1_barrel",
            "rotation" : [
                0.7071068286895752,
                0,
                0,
                0.7071067094802856
            ],
            "scale" : [
                0.009999999776482582,
                0.009999999776482582,
                0.009999999776482582
            ],
            "translation" : [
                0,
                0.07380954921245575,
                -0.07150473445653915
            ]
        },
        {
            "mesh" : 1,
            "name" : "lazer_lvl1_main",
            "rotation" : [
                0.7071068286895752,
                0,
                0,
                0.7071067094802856
            ],
            "scale" : [
                0.009999999776482582,
                0.009999999776482582,
                0.009999999776482582
            ],
            "translation" : [
                0,
                0.07380954921245575,
                -0.07150473445653915
            ]
        },
        {
            "mesh" : 2,
            "name" : "polySurface9",
            "rotation" : [
                0.7071068286895752,
                0,
                0,
                0.7071067094802856
            ],
            "scale" : [
                0.009999999776482582,
                0.009999999776482582,
                0.009999999776482582
            ],
            "translation" : [
                0,
                0.04208879917860031,
                -0.04077451303601265
            ]
        }
    ],
    "materials" : [
        {
            "doubleSided" : true,
            "emissiveFactor" : [
                1,
                1,
                1
            ],
            "emissiveTexture" : {
                "index" : 0
            },
            "name" : "pasted__laser",
            "normalTexture" : {
                "index" : 1
            },
            "pbrMetallicRoughness" : {
                "baseColorTexture" : {
                    "index" : 2
                },
                "metallicFactor" : 0.5,
                "roughnessFactor" : 0.5527864098548889
            }
        },
        {
            "doubleSided" : true,
            "emissiveFactor" : [
                1,
                1,
                1
            ],
            "emissiveTexture" : {
                "index" : 3
            },
            "name" : "basic_tower4",
            "normalTexture" : {
                "index" : 4
            },
            "pbrMetallicRoughness" : {
                "baseColorTexture" : {
                    "index" : 5
                },
                "metallicRoughnessTexture" : {
                    "index" : 6
                },
                "roughnessFactor" : 0.5527864098548889
            }
        }
    ],
    "meshes" : [
        {
            "name" : "Mesh.002",
            "primitives" : [
                {
                    "attributes" : {
                        "POSITION" : 0,
                        "NORMAL" : 1,
                        "TANGENT" : 2,
                        "TEXCOORD_0" : 3
                    },
                    "indices" : 4,
                    "material" : 0
                }
            ]
        },
        {
            "name" : "Mesh.003",
            "primitives" : [
                {
                    "attributes" : {
                        "POSITION" : 5,
                        "NORMAL" : 6,
                        "TANGENT" : 7,
                        "TEXCOORD_0" : 8
                    },
                    "indices" : 9,
                    "material" : 0
                }
            ]
        },
        {
            "name" : "Mesh.004",
            "primitives" : [
                {
                    "attributes" : {
                        "POSITION" : 10,
                        "NORMAL" : 11,
                        "TANGENT" : 12,
                        "TEXCOORD_0" : 13
                    },
                    "indices" : 14,
                    "material" : 1
                }
            ]
        }
    ],
    "textures" : [
        {
            "sampler" : 0,
            "source" : 0
        },
        {
            "sampler" : 0,
            "source" : 1
        },
        {
            "sampler" : 0,
            "source" : 2
        },
        {
            "sampler" : 0,
            "source" : 3
        },
        {
            "sampler" : 0,
            "source" : 4
        },
        {
            "sampler" : 0,
            "source" : 5
        },
        {
            "sampler" : 0,
            "source" : 6
        }
    ],
    "images" : [
        {
            "mimeType" : "image/png",
            "name" : "lazer_paint_laser_Emission",
            "uri" : "lazer_paint_laser_Emission.png"
        },
        {
            "mimeType" : "image/png",
            "name" : "lazer_N",
            "uri" : "lazer_N.png"
        },
        {
            "mimeType" : "image/png",
            "name" : "lazer_A",
            "uri" : "lazer_A.png"
        },
        {
            "mimeType" : "image/png",
            "name" : "paint2_basic_tower_Emissive",
            "uri" : "paint2_basic_tower_Emissive.png"
        },
        {
            "mimeType" : "image/png",
            "name" : "paint2_basic_tower_Normal",
            "uri" : "paint2_basic_tower_Normal.png"
        },
        {
            "mimeType" : "image/png",
            "name" : "lazer_A2",
            "uri" : "lazer_A2.png"
        },
        {
            "mimeType" : "image/png",
            "name" : "paint2_basic_tower_MetallicSmoothness",
            "uri" : "paint2_basic_tower_MetallicSmoothness.png"
        }
    ],
    "accessors" : [
        {
            "bufferView" : 0,
            "componentType" : 5126,
            "count" : 545,
            "max" : [
                46.451385498046875,
                125.0770034790039,
                -100.88018798828125
            ],
            "min" : [
                -46.451385498046875,
                63.72018814086914,
                -193.2708740234375
            ],
            "type" : "VEC3"
        },
        {
            "bufferView" : 1,
            "componentType" : 5126,
            "count" : 545,
            "type" : "VEC3"
        },
        {
            "bufferView" : 2,
            "componentType" : 5126,
            "count" : 545,
            "type" : "VEC4"
        },
        {
            "bufferView" : 3,
            "componentType" : 5126,
            "count" : 545,
            "type" : "VEC2"
        },
        {
            "bufferView" : 4,
            "componentType" : 5123,
            "count" : 1908,
            "type" : "SCALAR"
        },
        {
            "bufferView" : 5,
            "componentType" : 5126,
            "count" : 1260,
            "max" : [
                58.377105712890625,
                84.23207092285156,
                -76.11907958984375
            ],
            "min" : [
                -58.377105712890625,
                -66.34021759033203,
                -223.09490966796875
            ],
            "type" : "VEC3"
        },
        {
            "bufferView" : 6,
            "componentType" : 5126,
            "count" : 1260,
            "type" : "VEC3"
        },
        {
            "bufferView" : 7,
            "componentType" : 5126,
            "count" : 1260,
            "type" : "VEC4"
        },
        {
            "bufferView" : 8,
            "componentType" : 5126,
            "count" : 1260,
            "type" : "VEC2"
        },
        {
            "bufferView" : 9,
            "componentType" : 5123,
            "count" : 4464,
            "type" : "SCALAR"
        },
        {
            "bufferView" : 10,
            "componentType" : 5126,
            "count" : 2088,
            "max" : [
                125.66616821289062,
                125.6661605834961,
                1.4365577697753906
            ],
            "min" : [
                -125.6661605834961,
                -125.66616821289062,
                -90.25379943847656
            ],
            "type" : "VEC3"
        },
        {
            "bufferView" : 11,
            "componentType" : 5126,
            "count" : 2088,
            "type" : "VEC3"
        },
        {
            "bufferView" : 12,
            "componentType" : 5126,
            "count" : 2088,
            "type" : "VEC4"
        },
        {
            "bufferView" : 13,
            "componentType" : 5126,
            "count" : 2088,
            "type" : "VEC2"
        },
        {
            "bufferView" : 14,
            "componentType" : 5123,
            "count" : 6435,
            "type" : "SCALAR"
        }
    ],
    "bufferViews" : [
        {
            "buffer" : 0,
            "byteLength" : 6540,
            "byteOffset" : 0
        },
        {
            "buffer" : 0,
            "byteLength" : 6540,
            "byteOffset" : 6540
        },
        {
            "buffer" : 0,
            "byteLength" : 8720,
            "byteOffset" : 13080
        },
        {
            "buffer" : 0,
            "byteLength" : 4360,
            "byteOffset" : 21800
        },
        {
            "buffer" : 0,
            "byteLength" : 3816,
            "byteOffset" : 26160
        },
        {
            "buffer" : 0,
            "byteLength" : 15120,
            "byteOffset" : 29976
        },
        {
            "buffer" : 0,
            "byteLength" : 15120,
            "byteOffset" : 45096
        },
        {
            "buffer" : 0,
            "byteLength" : 20160,
            "byteOffset" : 60216
        },
        {
            "buffer" : 0,
            "byteLength" : 10080,
            "byteOffset" : 80376
        },
        {
            "buffer" : 0,
            "byteLength" : 8928,
            "byteOffset" : 90456
        },
        {
            "buffer" : 0,
            "byteLength" : 25056,
            "byteOffset" : 99384
        },
        {
            "buffer" : 0,
            "byteLength" : 25056,
            "byteOffset" : 124440
        },
        {
            "buffer" : 0,
            "byteLength" : 33408,
            "byteOffset" : 149496
        },
        {
            "buffer" : 0,
            "byteLength" : 16704,
            "byteOffset" : 182904
        },
        {
            "buffer" : 0,
            "byteLength" : 12870,
            "byteOffset" : 199608
        }
    ],
    "samplers" : [
        {
            "magFilter" : 9729,
            "minFilter" : 9987
        }
    ],
    "buffers" : [
        {
            "byteLength" : 212480,
            "uri" : "Laser_Turret.bin"
        }
    ]
}
