{
    "asset" : {
        "generator" : "Khronos glTF Blender I/O v1.5.17",
        "version" : "2.0"
    },
    "scene" : 0,
    "scenes" : [
        {
            "name" : "Scene",
            "nodes" : [
                0,
                1,
                2
            ]
        }
    ],
    "nodes" : [
        {
            "mesh" : 0,
            "name" : "lvl1_launcher_bot",
            "rotation" : [
                0.7071068286895752,
                0,
                0,
                0.7071067094802856
            ],
            "scale" : [
                0.009999999776482582,
                0.009999999776482582,
                0.009999999776482582
            ]
        },
        {
            "mesh" : 1,
            "name" : "lvl1_launcher_mid",
            "rotation" : [
                0.7071068286895752,
                0,
                0,
                0.7071067094802856
            ],
            "scale" : [
                0.009999999776482582,
                0.009999999776482582,
                0.009999999776482582
            ]
        },
        {
            "mesh" : 2,
            "name" : "lvl1_launcher_top",
            "rotation" : [
                0.7071068286895752,
                0,
                0,
                0.7071067094802856
            ],
            "scale" : [
                0.009999999776482582,
                0.009999999776482582,
                0.009999999776482582
            ]
        }
    ],
    "materials" : [
        {
            "doubleSided" : true,
            "emissiveFactor" : [
                1,
                1,
                1
            ],
            "emissiveTexture" : {
                "index" : 0
            },
            "name" : "launcer.004",
            "pbrMetallicRoughness" : {
                "baseColorTexture" : {
                    "index" : 1
                },
                "metallicRoughnessTexture" : {
                    "index" : 2
                },
                "roughnessFactor" : 0.5527864098548889
            }
        }
    ],
    "meshes" : [
        {
            "name" : "Mesh.003",
            "primitives" : [
                {
                    "attributes" : {
                        "POSITION" : 0,
                        "NORMAL" : 1,
                        "TANGENT" : 2,
                        "TEXCOORD_0" : 3
                    },
                    "indices" : 4,
                    "material" : 0
                }
            ]
        },
        {
            "name" : "Mesh.002",
            "primitives" : [
                {
                    "attributes" : {
                        "POSITION" : 5,
                        "NORMAL" : 6,
                        "TANGENT" : 7,
                        "TEXCOORD_0" : 8
                    },
                    "indices" : 9,
                    "material" : 0
                }
            ]
        },
        {
            "name" : "Mesh.004",
            "primitives" : [
                {
                    "attributes" : {
                        "POSITION" : 10,
                        "NORMAL" : 11,
                        "TANGENT" : 12,
                        "TEXCOORD_0" : 13
                    },
                    "indices" : 14,
                    "material" : 0
                }
            ]
        }
    ],
    "textures" : [
        {
            "sampler" : 0,
            "source" : 0
        },
        {
            "sampler" : 0,
            "source" : 1
        },
        {
            "sampler" : 0,
            "source" : 2
        }
    ],
    "images" : [
        {
            "mimeType" : "image/png",
            "name" : "Construct_launcer_Emission",
            "uri" : "Construct_launcer_Emission.png"
        },
        {
            "mimeType" : "image/png",
            "name" : "Construct_launcer_AlbedoTransparency",
            "uri" : "Construct_launcer_AlbedoTransparency.png"
        },
        {
            "mimeType" : "image/png",
            "name" : "Construct_launcer_MetallicSmoothness",
            "uri" : "Construct_launcer_MetallicSmoothness.png"
        }
    ],
    "accessors" : [
        {
            "bufferView" : 0,
            "componentType" : 5126,
            "count" : 352,
            "max" : [
                98.67291259765625,
                109.74616241455078,
                1.4936599731445312
            ],
            "min" : [
                -98.67291259765625,
                -87.25005340576172,
                -37.00144958496094
            ],
            "type" : "VEC3"
        },
        {
            "bufferView" : 1,
            "componentType" : 5126,
            "count" : 352,
            "type" : "VEC3"
        },
        {
            "bufferView" : 2,
            "componentType" : 5126,
            "count" : 352,
            "type" : "VEC4"
        },
        {
            "bufferView" : 3,
            "componentType" : 5126,
            "count" : 352,
            "type" : "VEC2"
        },
        {
            "bufferView" : 4,
            "componentType" : 5123,
            "count" : 1260,
            "type" : "SCALAR"
        },
        {
            "bufferView" : 5,
            "componentType" : 5126,
            "count" : 500,
            "max" : [
                73.43293762207031,
                84.83262634277344,
                -36.513755798339844
            ],
            "min" : [
                -73.43293762207031,
                -71.30863189697266,
                -149.66819763183594
            ],
            "type" : "VEC3"
        },
        {
            "bufferView" : 6,
            "componentType" : 5126,
            "count" : 500,
            "type" : "VEC3"
        },
        {
            "bufferView" : 7,
            "componentType" : 5126,
            "count" : 500,
            "type" : "VEC4"
        },
        {
            "bufferView" : 8,
            "componentType" : 5126,
            "count" : 500,
            "type" : "VEC2"
        },
        {
            "bufferView" : 9,
            "componentType" : 5123,
            "count" : 1974,
            "type" : "SCALAR"
        },
        {
            "bufferView" : 10,
            "componentType" : 5126,
            "count" : 2044,
            "max" : [
                80.73133087158203,
                64.13158416748047,
                -71.85260009765625
            ],
            "min" : [
                -80.73133087158203,
                -116.54399871826172,
                -208.82110595703125
            ],
            "type" : "VEC3"
        },
        {
            "bufferView" : 11,
            "componentType" : 5126,
            "count" : 2044,
            "type" : "VEC3"
        },
        {
            "bufferView" : 12,
            "componentType" : 5126,
            "count" : 2044,
            "type" : "VEC4"
        },
        {
            "bufferView" : 13,
            "componentType" : 5126,
            "count" : 2044,
            "type" : "VEC2"
        },
        {
            "bufferView" : 14,
            "componentType" : 5123,
            "count" : 7836,
            "type" : "SCALAR"
        }
    ],
    "bufferViews" : [
        {
            "buffer" : 0,
            "byteLength" : 4224,
            "byteOffset" : 0
        },
        {
            "buffer" : 0,
            "byteLength" : 4224,
            "byteOffset" : 4224
        },
        {
            "buffer" : 0,
            "byteLength" : 5632,
            "byteOffset" : 8448
        },
        {
            "buffer" : 0,
            "byteLength" : 2816,
            "byteOffset" : 14080
        },
        {
            "buffer" : 0,
            "byteLength" : 2520,
            "byteOffset" : 16896
        },
        {
            "buffer" : 0,
            "byteLength" : 6000,
            "byteOffset" : 19416
        },
        {
            "buffer" : 0,
            "byteLength" : 6000,
            "byteOffset" : 25416
        },
        {
            "buffer" : 0,
            "byteLength" : 8000,
            "byteOffset" : 31416
        },
        {
            "buffer" : 0,
            "byteLength" : 4000,
            "byteOffset" : 39416
        },
        {
            "buffer" : 0,
            "byteLength" : 3948,
            "byteOffset" : 43416
        },
        {
            "buffer" : 0,
            "byteLength" : 24528,
            "byteOffset" : 47364
        },
        {
            "buffer" : 0,
            "byteLength" : 24528,
            "byteOffset" : 71892
        },
        {
            "buffer" : 0,
            "byteLength" : 32704,
            "byteOffset" : 96420
        },
        {
            "buffer" : 0,
            "byteLength" : 16352,
            "byteOffset" : 129124
        },
        {
            "buffer" : 0,
            "byteLength" : 15672,
            "byteOffset" : 145476
        }
    ],
    "samplers" : [
        {
            "magFilter" : 9729,
            "minFilter" : 9987
        }
    ],
    "buffers" : [
        {
            "byteLength" : 161148,
            "uri" : "Launcher_turret.bin"
        }
    ]
}
