{
    "asset" : {
        "generator" : "Khronos glTF Blender I/O v1.3.48",
        "version" : "2.0"
    },
    "extensionsUsed" : [
        "KHR_lights_punctual"
    ],
    "extensionsRequired" : [
        "KHR_lights_punctual"
    ],
    "extensions" : {
        "KHR_lights_punctual" : {
            "lights" : [
                {
                    "color" : [
                        1,
                        1,
                        1
                    ],
                    "intensity" : 1,
                    "type" : "directional",
                    "name" : "Sun"
                }
            ]
        }
    },
    "scene" : 0,
    "scenes" : [
        {
            "extras" : {
                "glTF2ExportSettings" : {
                    "export_animations" : 1,
                    "export_apply" : 1,
                    "export_cameras" : 1,
                    "export_extras" : 1,
                    "export_format" : "GLTF_SEPARATE",
                    "export_image_format" : "AUTO",
                    "export_lights" : 1,
                    "export_morph" : 1,
                    "export_skins" : 1,
                    "export_tangents" : 1
                }
            },
            "name" : "Scene",
            "nodes" : [
                0,
                2,
                4
            ]
        }
    ],
    "nodes" : [
        {
            "extras" : {
                "LastPose" : "undefined",
                "MaxHandle" : 1447
            },
            "mesh" : 0,
            "name" : "Cerberus00_Fixed",
            "scale" : [
                0.009999999776482582,
                0.009999999776482582,
                0.009999999776482582
            ],
            "translation" : [
                0,
                0,
                -0.9372016191482544
            ]
        },
        {
            "extensions" : {
                "KHR_lights_punctual" : {
                    "light" : 0
                }
            },
            "name" : "Sun_Orientation",
            "rotation" : [
                -0.7071067690849304,
                0,
                0,
                0.7071067690849304
            ]
        },
        {
            "children" : [
                1
            ],
            "name" : "Sun",
            "rotation" : [
                0.2515891492366791,
                -0.3606495261192322,
                0.10168104618787766,
                0.8923541903495789
            ],
            "translation" : [
                -2.886016607284546,
                3.578587770462036,
                4.618455410003662
            ]
        },
        {
            "camera" : 0,
            "name" : "Camera_Orientation",
            "rotation" : [
                -0.7071067690849304,
                0,
                0,
                0.7071067690849304
            ]
        },
        {
            "children" : [
                3
            ],
            "name" : "Camera",
            "rotation" : [
                0.24612407386302948,
                -0.7582738399505615,
                0.39912086725234985,
                0.452930748462677
            ],
            "translation" : [
                -2.358323097229004,
                1.9599876403808594,
                -1.8041226863861084
            ]
        }
    ],
    "cameras" : [
        {
            "name" : "Camera.001",
            "perspective" : {
                "aspectRatio" : 1.7777777777777777,
                "yfov" : 0.4038851836174663,
                "zfar" : 1000,
                "znear" : 0.10000000149011612
            },
            "type" : "perspective"
        }
    ],
    "materials" : [
        {
            "doubleSided" : true,
            "emissiveFactor" : [
                0,
                0,
                0
            ],
            "name" : "08 - Default",
            "normalTexture" : {
                "index" : 0,
                "texCoord" : 0
            },
            "occlusionTexture" : {
                "index" : 1,
                "texCoord" : 0
            },
            "pbrMetallicRoughness" : {
                "baseColorTexture" : {
                    "index" : 2,
                    "texCoord" : 0
                },
                "metallicRoughnessTexture" : {
                    "index" : 1,
                    "texCoord" : 0
                }
            }
        }
    ],
    "meshes" : [
        {
            "name" : "Mesh",
            "primitives" : [
                {
                    "attributes" : {
                        "POSITION" : 0,
                        "NORMAL" : 1,
                        "TANGENT" : 2,
                        "TEXCOORD_0" : 3
                    },
                    "indices" : 4,
                    "material" : 0
                }
            ]
        }
    ],
    "textures" : [
        {
            "source" : 0
        },
        {
            "source" : 1
        },
        {
            "source" : 2
        }
    ],
    "images" : [
        {
            "mimeType" : "image/png",
            "name" : "Cerberus_Normal",
            "uri" : "Cerberus_Normal.png"
        },
        {
            "mimeType" : "image/png",
            "name" : "Cerberus_AO-Cerberus_Roughness-Cerberus_Metallic",
            "uri" : "Cerberus_AO-Cerberus_Roughness-Cerberus_Metallic.png"
        },
        {
            "mimeType" : "image/png",
            "name" : "Cerberus_Albedo",
            "uri" : "Cerberus_Albedo.png"
        }
    ],
    "accessors" : [
        {
            "bufferView" : 0,
            "componentType" : 5126,
            "count" : 28655,
            "max" : [
                12.520315170288086,
                18.77880096435547,
                130.2689666748047
            ],
            "min" : [
                -19.99312400817871,
                -47.20871353149414,
                -25.837120056152344
            ],
            "type" : "VEC3"
        },
        {
            "bufferView" : 1,
            "componentType" : 5126,
            "count" : 28655,
            "type" : "VEC3"
        },
        {
            "bufferView" : 2,
            "componentType" : 5126,
            "count" : 28655,
            "type" : "VEC4"
        },
        {
            "bufferView" : 3,
            "componentType" : 5126,
            "count" : 28655,
            "type" : "VEC2"
        },
        {
            "bufferView" : 4,
            "componentType" : 5123,
            "count" : 100623,
            "type" : "SCALAR"
        }
    ],
    "bufferViews" : [
        {
            "buffer" : 0,
            "byteLength" : 343860,
            "byteOffset" : 0
        },
        {
            "buffer" : 0,
            "byteLength" : 343860,
            "byteOffset" : 343860
        },
        {
            "buffer" : 0,
            "byteLength" : 458480,
            "byteOffset" : 687720
        },
        {
            "buffer" : 0,
            "byteLength" : 229240,
            "byteOffset" : 1146200
        },
        {
            "buffer" : 0,
            "byteLength" : 201246,
            "byteOffset" : 1375440
        }
    ],
    "buffers" : [
        {
            "byteLength" : 1576688,
            "uri" : "Cerberus.bin"
        }
    ]
}
