{
    "asset" : {
        "generator" : "Khronos glTF Blender I/O v1.3.48",
        "version" : "2.0"
    },
    "extensionsUsed" : [
        "KHR_lights_punctual"
    ],
    "extensionsRequired" : [
        "KHR_lights_punctual"
    ],
    "extensions" : {
        "KHR_lights_punctual" : {
            "lights" : [
                {
                    "color" : [
                        1,
                        1,
                        1
                    ],
                    "intensity" : 1,
                    "type" : "directional",
                    "name" : "Sun"
                }
            ]
        }
    },
    "scene" : 0,
    "scenes" : [
        {
            "name" : "Scene",
            "nodes" : [
                0,
                3,
                6,
                7
            ]
        }
    ],
    "nodes" : [
        {
            "mesh" : 0,
            "name" : "NormalTangentTest_low",
            "rotation" : [
                0,
                0.7071067690849304,
                0,
                0.7071067690849304
            ],
            "translation" : [
                -1,
                0,
                0
            ]
        },
        {
            "extensions" : {
                "KHR_lights_punctual" : {
                    "light" : 0
                }
            },
            "name" : "Sun_Orientation_Orientation",
            "rotation" : [
                -0.7071067690849304,
                0,
                0,
                0.7071067690849304
            ]
        },
        {
            "children" : [
                1
            ],
            "name" : "Sun_Orientation"
        },
        {
            "children" : [
                2
            ],
            "name" : "Sun",
            "rotation" : [
                0.4364057183265686,
                0,
                0,
                0.8997499942779541
            ],
            "translation" : [
                -0.0017045320710167289,
                1.0260510444641113,
                1.8851704597473145
            ]
        },
        {
            "camera" : 0,
            "name" : "Camera_Orientation_Orientation",
            "rotation" : [
                -0.7071067690849304,
                0,
                0,
                0.7071067690849304
            ]
        },
        {
            "children" : [
                4
            ],
            "name" : "Camera_Orientation"
        },
        {
            "children" : [
                5
            ],
            "name" : "Camera",
            "rotation" : [
                0.6463845372200012,
                -0.0012153139105066657,
                -0.004964177031069994,
                0.7629947066307068
            ],
            "translation" : [
                0,
                0.9883719086647034,
                5.829590320587158
            ]
        },
        {
            "mesh" : 1,
            "name" : "NormalTangentTest_low.001",
            "rotation" : [
                0,
                -0.7071067690849304,
                0,
                0.7071067690849304
            ],
            "translation" : [
                1,
                0,
                0
            ]
        }
    ],
    "cameras" : [
        {
            "name" : "Camera.001",
            "perspective" : {
                "aspectRatio" : 1.7777777777777777,
                "yfov" : 0.39959651231765747,
                "zfar" : 1000,
                "znear" : 0.10000000149011612
            },
            "type" : "perspective"
        }
    ],
    "materials" : [
        {
            "doubleSided" : true,
            "emissiveFactor" : [
                0,
                0,
                0
            ],
            "name" : "Material.001",
            "normalTexture" : {
                "index" : 0,
                "texCoord" : 0
            },
            "occlusionTexture" : {
                "index" : 1,
                "texCoord" : 0
            },
            "pbrMetallicRoughness" : {
                "baseColorTexture" : {
                    "index" : 2,
                    "texCoord" : 0
                },
                "metallicRoughnessTexture" : {
                    "index" : 1,
                    "texCoord" : 0
                }
            }
        }
    ],
    "meshes" : [
        {
            "name" : "NormalTangentTest_low",
            "primitives" : [
                {
                    "attributes" : {
                        "POSITION" : 0,
                        "NORMAL" : 1,
                        "TANGENT" : 2,
                        "TEXCOORD_0" : 3
                    },
                    "indices" : 4,
                    "material" : 0
                }
            ]
        },
        {
            "name" : "NormalTangentTest_low.001",
            "primitives" : [
                {
                    "attributes" : {
                        "POSITION" : 5,
                        "NORMAL" : 6,
                        "TANGENT" : 7,
                        "TEXCOORD_0" : 8
                    },
                    "indices" : 4,
                    "material" : 0
                }
            ]
        }
    ],
    "textures" : [
        {
            "source" : 0
        },
        {
            "source" : 1
        },
        {
            "source" : 2
        }
    ],
    "images" : [
        {
            "mimeType" : "image/png",
            "name" : "NormalTangentTest_Normal",
            "uri" : "NormalTangentTest_Normal.png"
        },
        {
            "mimeType" : "image/png",
            "name" : "NormalTangentMirrorTest_OcclusionRoughnessMetallic",
            "uri" : "NormalTangentMirrorTest_OcclusionRoughnessMetallic.png"
        },
        {
            "mimeType" : "image/png",
            "name" : "NormalTangentMirrorTest_BaseColor",
            "uri" : "NormalTangentMirrorTest_BaseColor.png"
        }
    ],
    "accessors" : [
        {
            "bufferView" : 0,
            "componentType" : 5126,
            "count" : 2834,
            "max" : [
                1.4138822555541992,
                1.0467524528503418,
                0.08050008118152618
            ],
            "min" : [
                -1.4246257543563843,
                -1.2000000476837158,
                -0.009999947622418404
            ],
            "type" : "VEC3"
        },
        {
            "bufferView" : 1,
            "componentType" : 5126,
            "count" : 2834,
            "type" : "VEC3"
        },
        {
            "bufferView" : 2,
            "componentType" : 5126,
            "count" : 2834,
            "type" : "VEC4"
        },
        {
            "bufferView" : 3,
            "componentType" : 5126,
            "count" : 2834,
            "type" : "VEC2"
        },
        {
            "bufferView" : 4,
            "componentType" : 5123,
            "count" : 15720,
            "type" : "SCALAR"
        },
        {
            "bufferView" : 5,
            "componentType" : 5126,
            "count" : 2834,
            "max" : [
                1.4138822555541992,
                1.0467524528503418,
                0.08050008118152618
            ],
            "min" : [
                -1.4246257543563843,
                -1.2000000476837158,
                -0.009999947622418404
            ],
            "type" : "VEC3"
        },
        {
            "bufferView" : 6,
            "componentType" : 5126,
            "count" : 2834,
            "type" : "VEC3"
        },
        {
            "bufferView" : 7,
            "componentType" : 5126,
            "count" : 2834,
            "type" : "VEC4"
        },
        {
            "bufferView" : 8,
            "componentType" : 5126,
            "count" : 2834,
            "type" : "VEC2"
        }
    ],
    "bufferViews" : [
        {
            "buffer" : 0,
            "byteLength" : 34008,
            "byteOffset" : 0
        },
        {
            "buffer" : 0,
            "byteLength" : 34008,
            "byteOffset" : 34008
        },
        {
            "buffer" : 0,
            "byteLength" : 45344,
            "byteOffset" : 68016
        },
        {
            "buffer" : 0,
            "byteLength" : 22672,
            "byteOffset" : 113360
        },
        {
            "buffer" : 0,
            "byteLength" : 31440,
            "byteOffset" : 136032
        },
        {
            "buffer" : 0,
            "byteLength" : 34008,
            "byteOffset" : 167472
        },
        {
            "buffer" : 0,
            "byteLength" : 34008,
            "byteOffset" : 201480
        },
        {
            "buffer" : 0,
            "byteLength" : 45344,
            "byteOffset" : 235488
        },
        {
            "buffer" : 0,
            "byteLength" : 22672,
            "byteOffset" : 280832
        }
    ],
    "buffers" : [
        {
            "byteLength" : 303504,
            "uri" : "NormalTangentMirrorTest._AngleTestgltf.bin"
        }
    ]
}
