{
    "asset" : {
        "generator" : "Khronos glTF Blender I/O v1.5.17",
        "version" : "2.0"
    },
    "scene" : 0,
    "scenes" : [
        {
            "name" : "Scene",
            "nodes" : [
                0
            ]
        }
    ],
    "nodes" : [
        {
            "mesh" : 0,
            "name" : "Tip_low",
            "rotation" : [
                0.7071068286895752,
                0,
                0,
                0.7071067094802856
            ],
            "scale" : [
                0.004035020247101784,
                0.004035020247101784,
                0.004035020247101784
            ]
        }
    ],
    "materials" : [
        {
            "doubleSided" : true,
            "emissiveFactor" : [
                1,
                1,
                1
            ],
            "emissiveTexture" : {
                "index" : 0
            },
            "name" : "lambert1.002",
            "normalTexture" : {
                "index" : 1,
                "scale" : 1.100000023841858
            },
            "pbrMetallicRoughness" : {
                "baseColorTexture" : {
                    "index" : 2
                },
                "metallicFactor" : 0,
                "metallicRoughnessTexture" : {
                    "index" : 3
                }
            }
        }
    ],
    "meshes" : [
        {
            "name" : "Mesh.002",
            "primitives" : [
                {
                    "attributes" : {
                        "POSITION" : 0,
                        "NORMAL" : 1,
                        "TANGENT" : 2,
                        "TEXCOORD_0" : 3
                    },
                    "indices" : 4,
                    "material" : 0
                }
            ]
        }
    ],
    "textures" : [
        {
            "sampler" : 0,
            "source" : 0
        },
        {
            "sampler" : 0,
            "source" : 1
        },
        {
            "sampler" : 0,
            "source" : 2
        },
        {
            "sampler" : 0,
            "source" : 3
        }
    ],
    "images" : [
        {
            "mimeType" : "image/png",
            "name" : "bullet_roocket_paint_Bullets_Emission",
            "uri" : "bullet_roocket_paint_Bullets_Emission.png"
        },
        {
            "mimeType" : "image/png",
            "name" : "bullet_roocket_paint_Bullets_Normal",
            "uri" : "bullet_roocket_paint_Bullets_Normal.png"
        },
        {
            "mimeType" : "image/png",
            "name" : "bullet_roocket_paint_Bullets_AlbedoTransparency",
            "uri" : "bullet_roocket_paint_Bullets_AlbedoTransparency.png"
        },
        {
            "mimeType" : "image/png",
            "name" : "bullet_roocket_paint_Bullets_MetallicSmoothness",
            "uri" : "bullet_roocket_paint_Bullets_MetallicSmoothness.png"
        }
    ],
    "accessors" : [
        {
            "bufferView" : 0,
            "componentType" : 5126,
            "count" : 258,
            "max" : [
                11.628204345703125,
                62.716583251953125,
                11.628204345703125
            ],
            "min" : [
                -11.628204345703125,
                0,
                -11.628204345703125
            ],
            "type" : "VEC3"
        },
        {
            "bufferView" : 1,
            "componentType" : 5126,
            "count" : 258,
            "type" : "VEC3"
        },
        {
            "bufferView" : 2,
            "componentType" : 5126,
            "count" : 258,
            "type" : "VEC4"
        },
        {
            "bufferView" : 3,
            "componentType" : 5126,
            "count" : 258,
            "type" : "VEC2"
        },
        {
            "bufferView" : 4,
            "componentType" : 5123,
            "count" : 612,
            "type" : "SCALAR"
        }
    ],
    "bufferViews" : [
        {
            "buffer" : 0,
            "byteLength" : 3096,
            "byteOffset" : 0
        },
        {
            "buffer" : 0,
            "byteLength" : 3096,
            "byteOffset" : 3096
        },
        {
            "buffer" : 0,
            "byteLength" : 4128,
            "byteOffset" : 6192
        },
        {
            "buffer" : 0,
            "byteLength" : 2064,
            "byteOffset" : 10320
        },
        {
            "buffer" : 0,
            "byteLength" : 1224,
            "byteOffset" : 12384
        }
    ],
    "samplers" : [
        {
            "magFilter" : 9729,
            "minFilter" : 9987
        }
    ],
    "buffers" : [
        {
            "byteLength" : 13608,
            "uri" : "Rocket.bin"
        }
    ]
}
