{
    "asset" : {
        "generator" : "Khronos glTF Blender I/O v1.3.48",
        "version" : "2.0"
    },
    "extensionsUsed" : [
        "KHR_lights_punctual"
    ],
    "extensionsRequired" : [
        "KHR_lights_punctual"
    ],
    "extensions" : {
        "KHR_lights_punctual" : {
            "lights" : [
                {
                    "color" : [
                        1,
                        1,
                        1
                    ],
                    "intensity" : 1,
                    "type" : "directional",
                    "name" : "Sun"
                }
            ]
        }
    },
    "scene" : 0,
    "scenes" : [
        {
            "name" : "Scene",
            "nodes" : [
                5,
                7,
                8,
                10
            ]
        }
    ],
    "nodes" : [
        {
            "mesh" : 0,
            "name" : "Spheres"
        },
        {
            "mesh" : 1,
            "name" : "Spheres.001"
        },
        {
            "mesh" : 2,
            "name" : "Spheres.002"
        },
        {
            "mesh" : 3,
            "name" : "Spheres.003"
        },
        {
            "mesh" : 4,
            "name" : "Spheres.004"
        },
        {
            "children" : [
                0,
                1,
                2,
                3,
                4
            ],
            "name" : "Node_0",
            "rotation" : [
                -0.7071068286895752,
                0,
                0,
                0.7071068286895752
            ],
            "scale" : [
                0.4000000059604645,
                0.4000000059604645,
                0.4000000059604645
            ]
        },
        {
            "extensions" : {
                "KHR_lights_punctual" : {
                    "light" : 0
                }
            },
            "name" : "Sun_Orientation",
            "rotation" : [
                -0.7071067690849304,
                0,
                0,
                0.7071067690849304
            ]
        },
        {
            "children" : [
                6
            ],
            "name" : "Sun",
            "rotation" : [
                0.15227331221103668,
                -0.3882378339767456,
                -0.33186885714530945,
                0.8461366891860962
            ],
            "translation" : [
                8.046379089355469,
                6.264808654785156,
                7.270272254943848
            ]
        },
        {
            "mesh" : 5,
            "name" : "Icosphere",
            "translation" : [
                8.0065279006958,
                5.932962417602539,
                7.056215763092041
            ]
        },
        {
            "camera" : 0,
            "name" : "Camera_Orientation",
            "rotation" : [
                -0.7071067690849304,
                0,
                0,
                0.7071067690849304
            ]
        },
        {
            "children" : [
                9
            ],
            "name" : "Camera",
            "rotation" : [
                0.5132870674133301,
                -0.2652553915977478,
                0.16195259988307953,
                0.7999671101570129
            ],
            "translation" : [
                -12.348662376403809,
                9.590182304382324,
                15.53489875793457
            ]
        }
    ],
    "cameras" : [
        {
            "name" : "Camera.001",
            "perspective" : {
                "aspectRatio" : 1.7777777777777777,
                "yfov" : 0.39959652046304894,
                "zfar" : 1000,
                "znear" : 0.10000000149011612
            },
            "type" : "perspective"
        }
    ],
    "materials" : [
        {
            "emissiveFactor" : [
                0,
                0,
                0
            ],
            "name" : "Material_0",
            "pbrMetallicRoughness" : {
                "baseColorTexture" : {
                    "index" : 0,
                    "texCoord" : 0
                },
                "metallicRoughnessTexture" : {
                    "index" : 1,
                    "texCoord" : 0
                }
            }
        }
    ],
    "meshes" : [
        {
            "name" : "Spheres",
            "primitives" : [
                {
                    "attributes" : {
                        "POSITION" : 0,
                        "NORMAL" : 1,
                        "TANGENT" : 2,
                        "TEXCOORD_0" : 3
                    },
                    "indices" : 4,
                    "material" : 0
                }
            ]
        },
        {
            "name" : "Spheres.001",
            "primitives" : [
                {
                    "attributes" : {
                        "POSITION" : 5,
                        "NORMAL" : 6,
                        "TANGENT" : 7,
                        "TEXCOORD_0" : 8
                    },
                    "indices" : 9,
                    "material" : 0
                }
            ]
        },
        {
            "name" : "Spheres.002",
            "primitives" : [
                {
                    "attributes" : {
                        "POSITION" : 10,
                        "NORMAL" : 11,
                        "TANGENT" : 12,
                        "TEXCOORD_0" : 13
                    },
                    "indices" : 9,
                    "material" : 0
                }
            ]
        },
        {
            "name" : "Spheres.003",
            "primitives" : [
                {
                    "attributes" : {
                        "POSITION" : 14,
                        "NORMAL" : 15,
                        "TANGENT" : 16,
                        "TEXCOORD_0" : 17
                    },
                    "indices" : 9,
                    "material" : 0
                }
            ]
        },
        {
            "name" : "Spheres.004",
            "primitives" : [
                {
                    "attributes" : {
                        "POSITION" : 18,
                        "NORMAL" : 19,
                        "TANGENT" : 20,
                        "TEXCOORD_0" : 21
                    },
                    "indices" : 22,
                    "material" : 0
                }
            ]
        },
        {
            "name" : "Icosphere",
            "primitives" : [
                {
                    "attributes" : {
                        "POSITION" : 23,
                        "NORMAL" : 24,
                        "TANGENT" : 25,
                        "TEXCOORD_0" : 26
                    },
                    "indices" : 27,
                    "material" : 0
                }
            ]
        }
    ],
    "textures" : [
        {
            "sampler" : 0,
            "source" : 0
        },
        {
            "sampler" : 1,
            "source" : 1
        }
    ],
    "images" : [
        {
            "mimeType" : "image/png",
            "name" : "Spheres_BaseColor",
            "uri" : "Spheres_BaseColor.png"
        },
        {
            "mimeType" : "image/png",
            "name" : "Spheres_MetalRough",
            "uri" : "Spheres_MetalRough.png"
        }
    ],
    "accessors" : [
        {
            "bufferView" : 0,
            "componentType" : 5126,
            "count" : 36638,
            "max" : [
                11.874730110168457,
                9,
                10.969940185546875
            ],
            "min" : [
                -12.186589241027832,
                -1,
                -12.35944938659668
            ],
            "type" : "VEC3"
        },
        {
            "bufferView" : 1,
            "componentType" : 5126,
            "count" : 36638,
            "type" : "VEC3"
        },
        {
            "bufferView" : 2,
            "componentType" : 5126,
            "count" : 36638,
            "type" : "VEC4"
        },
        {
            "bufferView" : 3,
            "componentType" : 5126,
            "count" : 36638,
            "type" : "VEC2"
        },
        {
            "bufferView" : 4,
            "componentType" : 5123,
            "count" : 215088,
            "type" : "SCALAR"
        },
        {
            "bufferView" : 5,
            "componentType" : 5126,
            "count" : 62736,
            "max" : [
                10,
                9,
                10
            ],
            "min" : [
                5,
                -1,
                -7
            ],
            "type" : "VEC3"
        },
        {
            "bufferView" : 6,
            "componentType" : 5126,
            "count" : 62736,
            "type" : "VEC3"
        },
        {
            "bufferView" : 7,
            "componentType" : 5126,
            "count" : 62736,
            "type" : "VEC4"
        },
        {
            "bufferView" : 8,
            "componentType" : 5126,
            "count" : 62736,
            "type" : "VEC2"
        },
        {
            "bufferView" : 9,
            "componentType" : 5123,
            "count" : 368640,
            "type" : "SCALAR"
        },
        {
            "bufferView" : 10,
            "componentType" : 5126,
            "count" : 62736,
            "max" : [
                4,
                9,
                10
            ],
            "min" : [
                -1,
                -1,
                -7
            ],
            "type" : "VEC3"
        },
        {
            "bufferView" : 11,
            "componentType" : 5126,
            "count" : 62736,
            "type" : "VEC3"
        },
        {
            "bufferView" : 12,
            "componentType" : 5126,
            "count" : 62736,
            "type" : "VEC4"
        },
        {
            "bufferView" : 13,
            "componentType" : 5126,
            "count" : 62736,
            "type" : "VEC2"
        },
        {
            "bufferView" : 14,
            "componentType" : 5126,
            "count" : 62736,
            "max" : [
                -2,
                9,
                10
            ],
            "min" : [
                -7,
                -1,
                -7
            ],
            "type" : "VEC3"
        },
        {
            "bufferView" : 15,
            "componentType" : 5126,
            "count" : 62736,
            "type" : "VEC3"
        },
        {
            "bufferView" : 16,
            "componentType" : 5126,
            "count" : 62736,
            "type" : "VEC4"
        },
        {
            "bufferView" : 17,
            "componentType" : 5126,
            "count" : 62736,
            "type" : "VEC2"
        },
        {
            "bufferView" : 18,
            "componentType" : 5126,
            "count" : 31368,
            "max" : [
                -8,
                9,
                10
            ],
            "min" : [
                -10,
                -1,
                -7
            ],
            "type" : "VEC3"
        },
        {
            "bufferView" : 19,
            "componentType" : 5126,
            "count" : 31368,
            "type" : "VEC3"
        },
        {
            "bufferView" : 20,
            "componentType" : 5126,
            "count" : 31368,
            "type" : "VEC4"
        },
        {
            "bufferView" : 21,
            "componentType" : 5126,
            "count" : 31368,
            "type" : "VEC2"
        },
        {
            "bufferView" : 22,
            "componentType" : 5123,
            "count" : 184320,
            "type" : "SCALAR"
        },
        {
            "bufferView" : 23,
            "componentType" : 5126,
            "count" : 240,
            "max" : [
                0.9510578513145447,
                1,
                0.9999999403953552
            ],
            "min" : [
                -0.9510578513145447,
                -1,
                -0.9999999403953552
            ],
            "type" : "VEC3"
        },
        {
            "bufferView" : 24,
            "componentType" : 5126,
            "count" : 240,
            "type" : "VEC3"
        },
        {
            "bufferView" : 25,
            "componentType" : 5126,
            "count" : 240,
            "type" : "VEC4"
        },
        {
            "bufferView" : 26,
            "componentType" : 5126,
            "count" : 240,
            "type" : "VEC2"
        },
        {
            "bufferView" : 27,
            "componentType" : 5123,
            "count" : 240,
            "type" : "SCALAR"
        }
    ],
    "bufferViews" : [
        {
            "buffer" : 0,
            "byteLength" : 439656,
            "byteOffset" : 0
        },
        {
            "buffer" : 0,
            "byteLength" : 439656,
            "byteOffset" : 439656
        },
        {
            "buffer" : 0,
            "byteLength" : 586208,
            "byteOffset" : 879312
        },
        {
            "buffer" : 0,
            "byteLength" : 293104,
            "byteOffset" : 1465520
        },
        {
            "buffer" : 0,
            "byteLength" : 430176,
            "byteOffset" : 1758624
        },
        {
            "buffer" : 0,
            "byteLength" : 752832,
            "byteOffset" : 2188800
        },
        {
            "buffer" : 0,
            "byteLength" : 752832,
            "byteOffset" : 2941632
        },
        {
            "buffer" : 0,
            "byteLength" : 1003776,
            "byteOffset" : 3694464
        },
        {
            "buffer" : 0,
            "byteLength" : 501888,
            "byteOffset" : 4698240
        },
        {
            "buffer" : 0,
            "byteLength" : 737280,
            "byteOffset" : 5200128
        },
        {
            "buffer" : 0,
            "byteLength" : 752832,
            "byteOffset" : 5937408
        },
        {
            "buffer" : 0,
            "byteLength" : 752832,
            "byteOffset" : 6690240
        },
        {
            "buffer" : 0,
            "byteLength" : 1003776,
            "byteOffset" : 7443072
        },
        {
            "buffer" : 0,
            "byteLength" : 501888,
            "byteOffset" : 8446848
        },
        {
            "buffer" : 0,
            "byteLength" : 752832,
            "byteOffset" : 8948736
        },
        {
            "buffer" : 0,
            "byteLength" : 752832,
            "byteOffset" : 9701568
        },
        {
            "buffer" : 0,
            "byteLength" : 1003776,
            "byteOffset" : 10454400
        },
        {
            "buffer" : 0,
            "byteLength" : 501888,
            "byteOffset" : 11458176
        },
        {
            "buffer" : 0,
            "byteLength" : 376416,
            "byteOffset" : 11960064
        },
        {
            "buffer" : 0,
            "byteLength" : 376416,
            "byteOffset" : 12336480
        },
        {
            "buffer" : 0,
            "byteLength" : 501888,
            "byteOffset" : 12712896
        },
        {
            "buffer" : 0,
            "byteLength" : 250944,
            "byteOffset" : 13214784
        },
        {
            "buffer" : 0,
            "byteLength" : 368640,
            "byteOffset" : 13465728
        },
        {
            "buffer" : 0,
            "byteLength" : 2880,
            "byteOffset" : 13834368
        },
        {
            "buffer" : 0,
            "byteLength" : 2880,
            "byteOffset" : 13837248
        },
        {
            "buffer" : 0,
            "byteLength" : 3840,
            "byteOffset" : 13840128
        },
        {
            "buffer" : 0,
            "byteLength" : 1920,
            "byteOffset" : 13843968
        },
        {
            "buffer" : 0,
            "byteLength" : 480,
            "byteOffset" : 13845888
        }
    ],
    "samplers" : [
        {
            "magFilter" : 9729,
            "minFilter" : 9986,
            "wrapS" : 33071,
            "wrapT" : 33071
        },
        {
            "magFilter" : 9729,
            "minFilter" : 9986,
            "wrapS" : 33071,
            "wrapT" : 33071
        }
    ],
    "buffers" : [
        {
            "byteLength" : 13846368,
            "uri" : "MetalRoughSpheresWithDirLight.bin"
        }
    ]
}
