{
	"asset":{
		"version":"2.0",
		"generator":"Houdini GLTF 2.0 Exporter"
	},
	"accessors":[
		{
			"bufferView":0,
			"componentType":5123,
			"count":7689,
			"type":"SCALAR",
			"min":[0
			],
			"max":[7688
			]
		},
		{
			"bufferView":1,
			"componentType":5126,
			"count":7689,
			"type":"VEC3",
			"min":[-18.8700008,-9.5170002,-8.36999989
			],
			"max":[18.8700008,0.48300001,17.3700008
			]
		},
		{
			"bufferView":2,
			"componentType":5126,
			"count":7689,
			"type":"VEC2",
			"min":[6.12999964,-32.8699989
			],
			"max":[43.8700027,-7.12999916
			]
		},
		{
			"bufferView":3,
			"componentType":5126,
			"count":7689,
			"type":"VEC3",
			"min":[-1,-1,-1
			],
			"max":[1,1,1
			]
		},
		{
			"bufferView":4,
			"componentType":5123,
			"count":14799,
			"type":"SCALAR",
			"min":[0
			],
			"max":[14798
			]
		},
		{
			"bufferView":5,
			"componentType":5126,
			"count":14799,
			"type":"VEC3",
			"min":[-18.8700008,-10,-13.3699999
			],
			"max":[24.8700008,0,17.3700008
			]
		},
		{
			"bufferView":6,
			"componentType":5126,
			"count":14799,
			"type":"VEC2",
			"min":[6.12999964,-37.8700027
			],
			"max":[49.8700027,-7.12999916
			]
		},
		{
			"bufferView":7,
			"componentType":5126,
			"count":14799,
			"type":"VEC3",
			"min":[-1,-1,-1
			],
			"max":[1,1,1
			]
		},
		{
			"bufferView":8,
			"componentType":5121,
			"count":15,
			"type":"SCALAR",
			"min":[0
			],
			"max":[14
			]
		},
		{
			"bufferView":9,
			"componentType":5126,
			"count":15,
			"type":"VEC3",
			"min":[-16,-0.0709581375,-11.5
			],
			"max":[23,-0.0699872971,3.5
			]
		},
		{
			"bufferView":10,
			"componentType":5126,
			"count":15,
			"type":"VEC2",
			"min":[9,-36
			],
			"max":[48,-21
			]
		},
		{
			"bufferView":11,
			"componentType":5126,
			"count":15,
			"type":"VEC3",
			"min":[0,1,0
			],
			"max":[0,1,0
			]
		},
		{
			"bufferView":12,
			"componentType":5121,
			"count":12,
			"type":"SCALAR",
			"min":[0
			],
			"max":[11
			]
		},
		{
			"bufferView":13,
			"componentType":5126,
			"count":12,
			"type":"VEC3",
			"min":[2,-10,8.5
			],
			"max":[3,0,9.5
			]
		},
		{
			"bufferView":14,
			"componentType":5126,
			"count":12,
			"type":"VEC2",
			"min":[0.658536613,-16
			],
			"max":[28,0.292682946
			]
		},
		{
			"bufferView":15,
			"componentType":5126,
			"count":12,
			"type":"VEC3",
			"min":[0,-1,0
			],
			"max":[0,1,0
			]
		},
		{
			"bufferView":16,
			"componentType":5123,
			"count":3987,
			"type":"SCALAR",
			"min":[0
			],
			"max":[3986
			]
		},
		{
			"bufferView":17,
			"componentType":5126,
			"count":3987,
			"type":"VEC3",
			"min":[-18.8700008,-10,-13.3699999
			],
			"max":[24.8700008,0.48300001,17.3700008
			]
		},
		{
			"bufferView":18,
			"componentType":5126,
			"count":3987,
			"type":"VEC2",
			"min":[-4.09523439,0.000999927521
			],
			"max":[4.06193447,1
			]
		},
		{
			"bufferView":19,
			"componentType":5126,
			"count":3987,
			"type":"VEC3",
			"min":[-1,-0.0017167289,-1
			],
			"max":[1,0.00763149047,1
			]
		},
		{
			"bufferView":20,
			"componentType":5121,
			"count":24,
			"type":"SCALAR",
			"min":[0
			],
			"max":[23
			]
		},
		{
			"bufferView":21,
			"componentType":5126,
			"count":24,
			"type":"VEC3",
			"min":[2,-10,8.5
			],
			"max":[3,0,9.5
			]
		},
		{
			"bufferView":22,
			"componentType":5126,
			"count":24,
			"type":"VEC2",
			"min":[0,0.451219499
			],
			"max":[0.243902504,0.548780501
			]
		},
		{
			"bufferView":23,
			"componentType":5126,
			"count":24,
			"type":"VEC3",
			"min":[-1,0,-1
			],
			"max":[1,0,1
			]
		}
	],
	"buffers":[
		{
			"uri":"Australopitecus_data.bin",
			"byteLength":901840,
			"name":"main_buffer"
		}
	],
	"bufferViews":[
		{
			"buffer":0,
			"byteLength":15378,
			"target":34963
		},
		{
			"buffer":0,
			"byteOffset":15380,
			"byteLength":92268,
			"target":34962
		},
		{
			"buffer":0,
			"byteOffset":107648,
			"byteLength":61512,
			"target":34962
		},
		{
			"buffer":0,
			"byteOffset":169160,
			"byteLength":92268,
			"target":34962
		},
		{
			"buffer":0,
			"byteOffset":261428,
			"byteLength":29598,
			"target":34963
		},
		{
			"buffer":0,
			"byteOffset":291028,
			"byteLength":177588,
			"target":34962
		},
		{
			"buffer":0,
			"byteOffset":468616,
			"byteLength":118392,
			"target":34962
		},
		{
			"buffer":0,
			"byteOffset":587008,
			"byteLength":177588,
			"target":34962
		},
		{
			"buffer":0,
			"byteOffset":764596,
			"byteLength":15,
			"target":34963
		},
		{
			"buffer":0,
			"byteOffset":764612,
			"byteLength":180,
			"target":34962
		},
		{
			"buffer":0,
			"byteOffset":764792,
			"byteLength":120,
			"target":34962
		},
		{
			"buffer":0,
			"byteOffset":764912,
			"byteLength":180,
			"target":34962
		},
		{
			"buffer":0,
			"byteOffset":765092,
			"byteLength":12,
			"target":34963
		},
		{
			"buffer":0,
			"byteOffset":765104,
			"byteLength":144,
			"target":34962
		},
		{
			"buffer":0,
			"byteOffset":765248,
			"byteLength":96,
			"target":34962
		},
		{
			"buffer":0,
			"byteOffset":765344,
			"byteLength":144,
			"target":34962
		},
		{
			"buffer":0,
			"byteOffset":765488,
			"byteLength":7974,
			"target":34963
		},
		{
			"buffer":0,
			"byteOffset":773464,
			"byteLength":47844,
			"target":34962
		},
		{
			"buffer":0,
			"byteOffset":821308,
			"byteLength":31896,
			"target":34962
		},
		{
			"buffer":0,
			"byteOffset":853204,
			"byteLength":47844,
			"target":34962
		},
		{
			"buffer":0,
			"byteOffset":901048,
			"byteLength":24,
			"target":34963
		},
		{
			"buffer":0,
			"byteOffset":901072,
			"byteLength":288,
			"target":34962
		},
		{
			"buffer":0,
			"byteOffset":901360,
			"byteLength":192,
			"target":34962
		},
		{
			"buffer":0,
			"byteOffset":901552,
			"byteLength":288,
			"target":34962
		}
	],
	"nodes":[
		{
			"name":"Second_concept",
			"mesh":0
		}
	],
	"meshes":[
		{
			"primitives":[
				{
					"attributes":{
						"NORMAL":3,
						"TEXCOORD_0":2,
						"POSITION":1
					},
					"indices":0,
					"material":0
				},
				{
					"attributes":{
						"NORMAL":7,
						"TEXCOORD_0":6,
						"POSITION":5
					},
					"indices":4,
					"material":1
				},
				{
					"attributes":{
						"NORMAL":11,
						"TEXCOORD_0":10,
						"POSITION":9
					},
					"indices":8,
					"material":2
				},
				{
					"attributes":{
						"NORMAL":15,
						"TEXCOORD_0":14,
						"POSITION":13
					},
					"indices":12,
					"material":3
				},
				{
					"attributes":{
						"NORMAL":19,
						"TEXCOORD_0":18,
						"POSITION":17
					},
					"indices":16,
					"material":4
				},
				{
					"attributes":{
						"NORMAL":23,
						"TEXCOORD_0":22,
						"POSITION":21
					},
					"indices":20,
					"material":0
				}
			]
		}
	],
	"materials":[
		{
			"name":"PlayA_Ceiling",
			"pbrMetallicRoughness":{
				"metallicFactor":0,
				"roughnessFactor":0,
				"baseColorTexture":{
					"index":0
				}
			}
		},
		{
			"name":"Enemies_Ceiling",
			"pbrMetallicRoughness":{
				"metallicFactor":0,
				"roughnessFactor":0,
				"baseColorTexture":{
					"index":1
				}
			}
		},
		{
			"name":"spawn_T",
			"pbrMetallicRoughness":{
				"metallicFactor":0,
				"roughnessFactor":0,
				"baseColorTexture":{
					"index":2
				}
			}
		},
		{
			"name":"core_T",
			"pbrMetallicRoughness":{
				"metallicFactor":0,
				"roughnessFactor":0,
				"baseColorTexture":{
					"index":3
				}
			}
		},
		{
			"name":"Wall_trimsheet",
			"pbrMetallicRoughness":{
				"metallicFactor":0,
				"roughnessFactor":0,
				"baseColorTexture":{
					"index":4
				}
			}
		}
	],
	"scenes":[
		{
			"nodes":[0
			]
		}
	],
	"textures":[
		{
			"source":0
		},
		{
			"source":1
		},
		{
			"source":2
		},
		{
			"source":3
		},
		{
			"source":4
		}
	],
	"images":[
		{
			"uri":"P_Tile_03_03.png",
			"mimeType":"image/png"
		},
		{
			"uri":"E_Tile_02_02.png",
			"mimeType":"image/png"
		},
		{
			"uri":"S_Tile_04.png",
			"mimeType":"image/png"
		},
		{
			"uri":"C_Tile_05.png",
			"mimeType":"image/png"
		},
		{
			"uri":"Wall_trim_Mesa_de_trabajo_1.png",
			"mimeType":"image/png"
		}
	],
	"scene":0
}
