{
    "asset" : {
        "generator" : "Khronos glTF Blender I/O v1.5.17",
        "version" : "2.0"
    },
    "extensionsUsed" : [
        "KHR_lights_punctual"
    ],
    "extensionsRequired" : [
        "KHR_lights_punctual"
    ],
    "extensions" : {
        "KHR_lights_punctual" : {
            "lights" : [
                {
                    "color" : [
                        0.7742844820022583,
                        0.5814740061759949,
                        1
                    ],
                    "intensity" : 0.8300000429153442,
                    "type" : "directional",
                    "name" : "Sun"
                },
                {
                    "color" : [
                        0.17918603122234344,
                        0.14849260449409485,
                        1
                    ],
                    "intensity" : 998,
                    "type" : "point",
                    "range" : 100,
                    "name" : "Point.003"
                },
                {
                    "color" : [
                        1,
                        0.9350708723068237,
                        0.1414133757352829
                    ],
                    "intensity" : 998,
                    "type" : "point",
                    "range" : 100,
                    "name" : "Point.004"
                },
                {
                    "color" : [
                        1,
                        1,
                        1
                    ],
                    "intensity" : 6.060000419616699,
                    "type" : "directional",
                    "name" : "Sun.001"
                }
            ]
        }
    },
    "scene" : 0,
    "scenes" : [
        {
            "name" : "Scene",
            "nodes" : [
                1,
                3,
                5,
                7,
                8
            ]
        }
    ],
    "nodes" : [
        {
            "extensions" : {
                "KHR_lights_punctual" : {
                    "light" : 0
                }
            },
            "name" : "backsun_Orientation",
            "rotation" : [
                -0.7071067690849304,
                0,
                0,
                0.7071067690849304
            ]
        },
        {
            "children" : [
                0
            ],
            "name" : "backsun",
            "rotation" : [
                0.32428446412086487,
                -0.5933874845504761,
                0.2209230661392212,
                0.7027971744537354
            ],
            "translation" : [
                -225.6813507080078,
                239.78248596191406,
                52.313297271728516
            ]
        },
        {
            "extensions" : {
                "KHR_lights_punctual" : {
                    "light" : 1
                }
            },
            "name" : "blue_Orientation",
            "rotation" : [
                -0.7071067690849304,
                0,
                0,
                0.7071067690849304
            ]
        },
        {
            "children" : [
                2
            ],
            "name" : "blue",
            "translation" : [
                15.749345779418945,
                1.7636744976043701,
                -16.981342315673828
            ]
        },
        {
            "extensions" : {
                "KHR_lights_punctual" : {
                    "light" : 2
                }
            },
            "name" : "yellow_Orientation",
            "rotation" : [
                -0.7071067690849304,
                0,
                0,
                0.7071067690849304
            ]
        },
        {
            "children" : [
                4
            ],
            "name" : "yellow",
            "translation" : [
                16.306344985961914,
                2.7496790885925293,
                -6.264195442199707
            ]
        },
        {
            "extensions" : {
                "KHR_lights_punctual" : {
                    "light" : 3
                }
            },
            "name" : "Sun_Orientation",
            "rotation" : [
                -0.7071067690849304,
                0,
                0,
                0.7071067690849304
            ]
        },
        {
            "children" : [
                6
            ],
            "name" : "Sun",
            "rotation" : [
                0.15422460436820984,
                0.7267136573791504,
                -0.5636656284332275,
                0.36108604073524475
            ],
            "translation" : [
                237.60833740234375,
                150.3336944580078,
                -260.74066162109375
            ]
        },
        {
            "mesh" : 0,
            "name" : "Level_generator"
        }
    ],
    "materials" : [
        {
            "emissiveTexture" : {
                "index" : 0
            },
            "name" : "Normal_base.005",
            "normalTexture" : {
                "index" : 1
            },
            "pbrMetallicRoughness" : {
                "baseColorTexture" : {
                    "index" : 2
                },
                "metallicFactor" : 0,
                "metallicRoughnessTexture" : {
                    "index" : 3
                },
                "roughnessFactor" : 0.30000001192092896
            }
        },
        {
            "emissiveFactor" : [
                1,
                1,
                1
            ],
            "emissiveTexture" : {
                "index" : 4
            },
            "name" : "Normal_emissive.005",
            "normalTexture" : {
                "index" : 5
            },
            "pbrMetallicRoughness" : {
                "baseColorTexture" : {
                    "index" : 6
                },
                "metallicFactor" : 0,
                "metallicRoughnessTexture" : {
                    "index" : 7
                },
                "roughnessFactor" : 0.30000001192092896
            }
        }
    ],
    "meshes" : [
        {
            "name" : "Mesh_0.005",
            "primitives" : [
                {
                    "attributes" : {
                        "POSITION" : 0,
                        "NORMAL" : 1,
                        "TANGENT" : 2,
                        "TEXCOORD_0" : 3,
                        "COLOR_0" : 4
                    },
                    "indices" : 5,
                    "material" : 0
                },
                {
                    "attributes" : {
                        "POSITION" : 6,
                        "NORMAL" : 7,
                        "TANGENT" : 8,
                        "TEXCOORD_0" : 9,
                        "COLOR_0" : 10
                    },
                    "indices" : 11,
                    "material" : 1
                }
            ]
        }
    ],
    "textures" : [
        {
            "sampler" : 0,
            "source" : 0
        },
        {
            "sampler" : 0,
            "source" : 1
        },
        {
            "sampler" : 0,
            "source" : 2
        },
        {
            "sampler" : 0,
            "source" : 3
        },
        {
            "sampler" : 0,
            "source" : 4
        },
        {
            "sampler" : 0,
            "source" : 1
        },
        {
            "sampler" : 0,
            "source" : 2
        },
        {
            "sampler" : 0,
            "source" : 3
        }
    ],
    "images" : [
        {
            "mimeType" : "image/png",
            "name" : "Emissive_map_0",
            "uri" : "Emissive_map_0.png"
        },
        {
            "mimeType" : "image/png",
            "name" : "normaltest",
            "uri" : "normaltest.png"
        },
        {
            "mimeType" : "image/png",
            "name" : "flat_C",
            "uri" : "flat_C.png"
        },
        {
            "mimeType" : "image/png",
            "name" : "flat_C1",
            "uri" : "flat_C1.png"
        },
        {
            "mimeType" : "image/png",
            "name" : "Emissive_map_1",
            "uri" : "Emissive_map_1.png"
        }
    ],
    "accessors" : [
        {
            "bufferView" : 0,
            "componentType" : 5126,
            "count" : 87147,
            "max" : [
                63,
                1.899999976158142,
                50.5
            ],
            "min" : [
                -42,
                -20.236980438232422,
                -74.5
            ],
            "type" : "VEC3"
        },
        {
            "bufferView" : 1,
            "componentType" : 5126,
            "count" : 87147,
            "type" : "VEC3"
        },
        {
            "bufferView" : 2,
            "componentType" : 5126,
            "count" : 87147,
            "type" : "VEC4"
        },
        {
            "bufferView" : 3,
            "componentType" : 5126,
            "count" : 87147,
            "type" : "VEC2"
        },
        {
            "bufferView" : 4,
            "componentType" : 5123,
            "count" : 87147,
            "normalized" : true,
            "type" : "VEC4"
        },
        {
            "bufferView" : 5,
            "componentType" : 5125,
            "count" : 87147,
            "type" : "SCALAR"
        },
        {
            "bufferView" : 6,
            "componentType" : 5126,
            "count" : 7584,
            "max" : [
                18,
                1.899999976158142,
                -3
            ],
            "min" : [
                3,
                -18.915002822875977,
                -21
            ],
            "type" : "VEC3"
        },
        {
            "bufferView" : 7,
            "componentType" : 5126,
            "count" : 7584,
            "type" : "VEC3"
        },
        {
            "bufferView" : 8,
            "componentType" : 5126,
            "count" : 7584,
            "type" : "VEC4"
        },
        {
            "bufferView" : 9,
            "componentType" : 5126,
            "count" : 7584,
            "type" : "VEC2"
        },
        {
            "bufferView" : 10,
            "componentType" : 5123,
            "count" : 7584,
            "normalized" : true,
            "type" : "VEC4"
        },
        {
            "bufferView" : 11,
            "componentType" : 5123,
            "count" : 7584,
            "type" : "SCALAR"
        }
    ],
    "bufferViews" : [
        {
            "buffer" : 0,
            "byteLength" : 1045764,
            "byteOffset" : 0
        },
        {
            "buffer" : 0,
            "byteLength" : 1045764,
            "byteOffset" : 1045764
        },
        {
            "buffer" : 0,
            "byteLength" : 1394352,
            "byteOffset" : 2091528
        },
        {
            "buffer" : 0,
            "byteLength" : 697176,
            "byteOffset" : 3485880
        },
        {
            "buffer" : 0,
            "byteLength" : 697176,
            "byteOffset" : 4183056
        },
        {
            "buffer" : 0,
            "byteLength" : 348588,
            "byteOffset" : 4880232
        },
        {
            "buffer" : 0,
            "byteLength" : 91008,
            "byteOffset" : 5228820
        },
        {
            "buffer" : 0,
            "byteLength" : 91008,
            "byteOffset" : 5319828
        },
        {
            "buffer" : 0,
            "byteLength" : 121344,
            "byteOffset" : 5410836
        },
        {
            "buffer" : 0,
            "byteLength" : 60672,
            "byteOffset" : 5532180
        },
        {
            "buffer" : 0,
            "byteLength" : 60672,
            "byteOffset" : 5592852
        },
        {
            "buffer" : 0,
            "byteLength" : 15168,
            "byteOffset" : 5653524
        }
    ],
    "samplers" : [
        {
            "magFilter" : 9729,
            "minFilter" : 9987
        }
    ],
    "buffers" : [
        {
            "byteLength" : 5668692,
            "uri" : "Leve01.bin"
        }
    ]
}
