{
    "asset" : {
        "generator" : "Khronos glTF Blender I/O v1.5.17",
        "version" : "2.0"
    },
    "extensionsUsed" : [
        "KHR_lights_punctual"
    ],
    "extensionsRequired" : [
        "KHR_lights_punctual"
    ],
    "extensions" : {
        "KHR_lights_punctual" : {
            "lights" : [
                {
                    "color" : [
                        0.7742844820022583,
                        0.5814740061759949,
                        1
                    ],
                    "intensity" : 0.8300000429153442,
                    "type" : "directional",
                    "name" : "Sun"
                },
                {
                    "color" : [
                        0.17918603122234344,
                        0.14849260449409485,
                        1
                    ],
                    "intensity" : 998,
                    "type" : "point",
                    "range" : 100,
                    "name" : "Point.003"
                },
                {
                    "color" : [
                        1,
                        0.9350708723068237,
                        0.1414133757352829
                    ],
                    "intensity" : 998,
                    "type" : "point",
                    "range" : 6,
                    "name" : "Point.004"
                },
                {
                    "color" : [
                        1,
                        1,
                        1
                    ],
                    "intensity" : 6.060000419616699,
                    "type" : "directional",
                    "name" : "Sun.001"
                },
                {
                    "color" : [
                        1,
                        0.9350708723068237,
                        0.1414133757352829
                    ],
                    "intensity" : 998,
                    "type" : "point",
                    "range" : 6,
                    "name" : "Point.002"
                },
                {
                    "color" : [
                        1,
                        0.9350708723068237,
                        0.1414133757352829
                    ],
                    "intensity" : 998,
                    "type" : "point",
                    "range" : 6,
                    "name" : "Point.006"
                }
            ]
        }
    },
    "scene" : 0,
    "scenes" : [
        {
            "name" : "Scene",
            "nodes" : [
                0,
                2,
                4,
                6,
                8,
                10,
                12
            ]
        }
    ],
    "nodes" : [
        {
            "mesh" : 0,
            "name" : "Level_generator"
        },
        {
            "extensions" : {
                "KHR_lights_punctual" : {
                    "light" : 0
                }
            },
            "name" : "backsun_Orientation",
            "rotation" : [
                -0.7071067690849304,
                0,
                0,
                0.7071067690849304
            ]
        },
        {
            "children" : [
                1
            ],
            "name" : "backsun",
            "rotation" : [
                0.32428446412086487,
                -0.5933874845504761,
                0.2209230661392212,
                0.7027971744537354
            ],
            "translation" : [
                -225.6813507080078,
                239.78248596191406,
                52.313297271728516
            ]
        },
        {
            "extensions" : {
                "KHR_lights_punctual" : {
                    "light" : 1
                }
            },
            "name" : "blue_Orientation",
            "rotation" : [
                -0.7071067690849304,
                0,
                0,
                0.7071067690849304
            ]
        },
        {
            "children" : [
                3
            ],
            "name" : "blue",
            "translation" : [
                26.98444366455078,
                1.7636747360229492,
                -28.237382888793945
            ]
        },
        {
            "extensions" : {
                "KHR_lights_punctual" : {
                    "light" : 2
                }
            },
            "name" : "yellow_Orientation",
            "rotation" : [
                -0.7071067690849304,
                0,
                0,
                0.7071067690849304
            ]
        },
        {
            "children" : [
                5
            ],
            "name" : "yellow",
            "translation" : [
                4.881721019744873,
                3.0061800479888916,
                -4.235184669494629
            ]
        },
        {
            "extensions" : {
                "KHR_lights_punctual" : {
                    "light" : 3
                }
            },
            "name" : "Sun_Orientation",
            "rotation" : [
                -0.7071067690849304,
                0,
                0,
                0.7071067690849304
            ]
        },
        {
            "children" : [
                7
            ],
            "name" : "Sun",
            "rotation" : [
                0.15422460436820984,
                0.7267136573791504,
                -0.5636656284332275,
                0.36108604073524475
            ],
            "translation" : [
                237.60833740234375,
                150.3336944580078,
                -260.74066162109375
            ]
        },
        {
            "extensions" : {
                "KHR_lights_punctual" : {
                    "light" : 4
                }
            },
            "name" : "yellow.001_Orientation",
            "rotation" : [
                -0.7071067690849304,
                0,
                0,
                0.7071067690849304
            ]
        },
        {
            "children" : [
                9
            ],
            "name" : "yellow.001",
            "translation" : [
                5.7045135498046875,
                2.8343729972839355,
                -14.917257308959961
            ]
        },
        {
            "extensions" : {
                "KHR_lights_punctual" : {
                    "light" : 5
                }
            },
            "name" : "yellow.002_Orientation",
            "rotation" : [
                -0.7071067690849304,
                0,
                0,
                0.7071067690849304
            ]
        },
        {
            "children" : [
                11
            ],
            "name" : "yellow.002",
            "translation" : [
                26.898971557617188,
                2.7496800422668457,
                -3.440645694732666
            ]
        }
    ],
    "materials" : [
        {
            "emissiveTexture" : {
                "index" : 0
            },
            "name" : "Normal_base.011",
            "normalTexture" : {
                "index" : 1
            },
            "pbrMetallicRoughness" : {
                "baseColorTexture" : {
                    "index" : 2
                },
                "metallicFactor" : 0,
                "metallicRoughnessTexture" : {
                    "index" : 3
                },
                "roughnessFactor" : 0.30000001192092896
            }
        },
        {
            "emissiveFactor" : [
                1,
                1,
                1
            ],
            "emissiveTexture" : {
                "index" : 4
            },
            "name" : "Normal_emissive.011",
            "normalTexture" : {
                "index" : 5
            },
            "pbrMetallicRoughness" : {
                "baseColorTexture" : {
                    "index" : 6
                },
                "metallicFactor" : 0,
                "metallicRoughnessTexture" : {
                    "index" : 7
                },
                "roughnessFactor" : 0.30000001192092896
            }
        }
    ],
    "meshes" : [
        {
            "name" : "Mesh_0.010",
            "primitives" : [
                {
                    "attributes" : {
                        "POSITION" : 0,
                        "NORMAL" : 1,
                        "TANGENT" : 2,
                        "TEXCOORD_0" : 3,
                        "COLOR_0" : 4
                    },
                    "indices" : 5,
                    "material" : 0
                },
                {
                    "attributes" : {
                        "POSITION" : 6,
                        "NORMAL" : 7,
                        "TANGENT" : 8,
                        "TEXCOORD_0" : 9,
                        "COLOR_0" : 10
                    },
                    "indices" : 11,
                    "material" : 1
                }
            ]
        }
    ],
    "textures" : [
        {
            "sampler" : 0,
            "source" : 0
        },
        {
            "sampler" : 0,
            "source" : 1
        },
        {
            "sampler" : 0,
            "source" : 2
        },
        {
            "sampler" : 0,
            "source" : 3
        },
        {
            "sampler" : 0,
            "source" : 4
        },
        {
            "sampler" : 0,
            "source" : 1
        },
        {
            "sampler" : 0,
            "source" : 2
        },
        {
            "sampler" : 0,
            "source" : 3
        }
    ],
    "images" : [
        {
            "mimeType" : "image/png",
            "name" : "Emissive_map_0",
            "uri" : "Emissive_map_0.png"
        },
        {
            "mimeType" : "image/png",
            "name" : "normaltest",
            "uri" : "normaltest.png"
        },
        {
            "mimeType" : "image/png",
            "name" : "flat_C",
            "uri" : "flat_C.png"
        },
        {
            "mimeType" : "image/png",
            "name" : "flat_C1",
            "uri" : "flat_C1.png"
        },
        {
            "mimeType" : "image/png",
            "name" : "Emissive_map_1",
            "uri" : "Emissive_map_1.png"
        }
    ],
    "accessors" : [
        {
            "bufferView" : 0,
            "componentType" : 5126,
            "count" : 161820,
            "max" : [
                93.5,
                1.899999976158142,
                64
            ],
            "min" : [
                -61.5,
                -20.236980438232422,
                -96
            ],
            "type" : "VEC3"
        },
        {
            "bufferView" : 1,
            "componentType" : 5126,
            "count" : 161820,
            "type" : "VEC3"
        },
        {
            "bufferView" : 2,
            "componentType" : 5126,
            "count" : 161820,
            "type" : "VEC4"
        },
        {
            "bufferView" : 3,
            "componentType" : 5126,
            "count" : 161820,
            "type" : "VEC2"
        },
        {
            "bufferView" : 4,
            "componentType" : 5123,
            "count" : 161820,
            "normalized" : true,
            "type" : "VEC4"
        },
        {
            "bufferView" : 5,
            "componentType" : 5125,
            "count" : 161820,
            "type" : "SCALAR"
        },
        {
            "bufferView" : 6,
            "componentType" : 5126,
            "count" : 11046,
            "max" : [
                30.13949966430664,
                1.899999976158142,
                -0.8604999780654907
            ],
            "min" : [
                1.8604999780654907,
                -18.36100196838379,
                -31.13949966430664
            ],
            "type" : "VEC3"
        },
        {
            "bufferView" : 7,
            "componentType" : 5126,
            "count" : 11046,
            "type" : "VEC3"
        },
        {
            "bufferView" : 8,
            "componentType" : 5126,
            "count" : 11046,
            "type" : "VEC4"
        },
        {
            "bufferView" : 9,
            "componentType" : 5126,
            "count" : 11046,
            "type" : "VEC2"
        },
        {
            "bufferView" : 10,
            "componentType" : 5123,
            "count" : 11046,
            "normalized" : true,
            "type" : "VEC4"
        },
        {
            "bufferView" : 11,
            "componentType" : 5123,
            "count" : 11046,
            "type" : "SCALAR"
        }
    ],
    "bufferViews" : [
        {
            "buffer" : 0,
            "byteLength" : 1941840,
            "byteOffset" : 0
        },
        {
            "buffer" : 0,
            "byteLength" : 1941840,
            "byteOffset" : 1941840
        },
        {
            "buffer" : 0,
            "byteLength" : 2589120,
            "byteOffset" : 3883680
        },
        {
            "buffer" : 0,
            "byteLength" : 1294560,
            "byteOffset" : 6472800
        },
        {
            "buffer" : 0,
            "byteLength" : 1294560,
            "byteOffset" : 7767360
        },
        {
            "buffer" : 0,
            "byteLength" : 647280,
            "byteOffset" : 9061920
        },
        {
            "buffer" : 0,
            "byteLength" : 132552,
            "byteOffset" : 9709200
        },
        {
            "buffer" : 0,
            "byteLength" : 132552,
            "byteOffset" : 9841752
        },
        {
            "buffer" : 0,
            "byteLength" : 176736,
            "byteOffset" : 9974304
        },
        {
            "buffer" : 0,
            "byteLength" : 88368,
            "byteOffset" : 10151040
        },
        {
            "buffer" : 0,
            "byteLength" : 88368,
            "byteOffset" : 10239408
        },
        {
            "buffer" : 0,
            "byteLength" : 22092,
            "byteOffset" : 10327776
        }
    ],
    "samplers" : [
        {
            "magFilter" : 9729,
            "minFilter" : 9987
        }
    ],
    "buffers" : [
        {
            "byteLength" : 10349868,
            "uri" : "Level5.bin"
        }
    ]
}
