{
    "asset" : {
        "generator" : "Khronos glTF Blender I/O v1.6.16",
        "version" : "2.0"
    },
    "extensionsUsed" : [
        "KHR_lights_punctual"
    ],
    "extensionsRequired" : [
        "KHR_lights_punctual"
    ],
    "extensions" : {
        "KHR_lights_punctual" : {
            "lights" : [
                {
                    "color" : [
                        0.7742844820022583,
                        0.5814740061759949,
                        1
                    ],
                    "intensity" : 0.8300000429153442,
                    "type" : "directional",
                    "name" : "Sun"
                },
                {
                    "color" : [
                        0.17918603122234344,
                        0.14849260449409485,
                        1
                    ],
                    "intensity" : 998,
                    "type" : "point",
                    "name" : "Point.003"
                },
                {
                    "color" : [
                        1,
                        0.9350708723068237,
                        0.1414133757352829
                    ],
                    "intensity" : 998,
                    "type" : "point",
                    "name" : "Point.004"
                },
                {
                    "color" : [
                        1,
                        1,
                        1
                    ],
                    "intensity" : 6.060000419616699,
                    "type" : "directional",
                    "name" : "Sun.001"
                },
                {
                    "color" : [
                        1,
                        0.9350708723068237,
                        0.1414133757352829
                    ],
                    "intensity" : 998,
                    "type" : "point",
                    "name" : "Point.001"
                }
            ]
        }
    },
    "scene" : 0,
    "scenes" : [
        {
            "name" : "Scene",
            "nodes" : [
                0,
                3,
                6,
                9,
                12,
                15
            ]
        }
    ],
    "nodes" : [
        {
            "mesh" : 0,
            "name" : "Level_generator"
        },
        {
            "extensions" : {
                "KHR_lights_punctual" : {
                    "light" : 0
                }
            },
            "name" : "backsun_Orientation_Orientation",
            "rotation" : [
                -0.7071067690849304,
                0,
                0,
                0.7071067690849304
            ]
        },
        {
            "children" : [
                1
            ],
            "name" : "backsun_Orientation"
        },
        {
            "children" : [
                2
            ],
            "name" : "backsun",
            "rotation" : [
                0.298811674118042,
                -0.5148646235466003,
                0.2543206214904785,
                0.762198805809021
            ],
            "translation" : [
                -107.79064178466797,
                122.45391082763672,
                19.487030029296875
            ]
        },
        {
            "extensions" : {
                "KHR_lights_punctual" : {
                    "light" : 1
                }
            },
            "name" : "blue_Orientation_Orientation",
            "rotation" : [
                -0.7071067690849304,
                0,
                0,
                0.7071067690849304
            ]
        },
        {
            "children" : [
                4
            ],
            "name" : "blue_Orientation"
        },
        {
            "children" : [
                5
            ],
            "name" : "blue",
            "translation" : [
                25.669301986694336,
                1.7636744976043701,
                -7.279422760009766
            ]
        },
        {
            "extensions" : {
                "KHR_lights_punctual" : {
                    "light" : 2
                }
            },
            "name" : "yellow_Orientation_Orientation",
            "rotation" : [
                -0.7071067690849304,
                0,
                0,
                0.7071067690849304
            ]
        },
        {
            "children" : [
                7
            ],
            "name" : "yellow_Orientation"
        },
        {
            "children" : [
                8
            ],
            "name" : "yellow",
            "translation" : [
                6.091455459594727,
                2.7496790885925293,
                -9.925567626953125
            ]
        },
        {
            "extensions" : {
                "KHR_lights_punctual" : {
                    "light" : 3
                }
            },
            "name" : "Sun_Orientation_Orientation",
            "rotation" : [
                -0.7071067690849304,
                0,
                0,
                0.7071067690849304
            ]
        },
        {
            "children" : [
                10
            ],
            "name" : "Sun_Orientation"
        },
        {
            "children" : [
                11
            ],
            "name" : "Sun",
            "rotation" : [
                0.215055912733078,
                0.76190185546875,
                -0.5433738827705383,
                0.2792873680591583
            ],
            "translation" : [
                128.0576629638672,
                71.07302856445312,
                -138.776123046875
            ]
        },
        {
            "extensions" : {
                "KHR_lights_punctual" : {
                    "light" : 4
                }
            },
            "name" : "yellow.001_Orientation_Orientation",
            "rotation" : [
                -0.7071067690849304,
                0,
                0,
                0.7071067690849304
            ]
        },
        {
            "children" : [
                13
            ],
            "name" : "yellow.001_Orientation"
        },
        {
            "children" : [
                14
            ],
            "name" : "yellow.001",
            "translation" : [
                8.252127647399902,
                2.7496790885925293,
                -20.713817596435547
            ]
        }
    ],
    "materials" : [
        {
            "emissiveTexture" : {
                "index" : 0
            },
            "name" : "Normal_base.007",
            "normalTexture" : {
                "index" : 1
            },
            "pbrMetallicRoughness" : {
                "baseColorTexture" : {
                    "index" : 2
                },
                "metallicFactor" : 0,
                "metallicRoughnessTexture" : {
                    "index" : 3
                },
                "roughnessFactor" : 0.30000001192092896
            }
        },
        {
            "emissiveFactor" : [
                1,
                1,
                1
            ],
            "emissiveTexture" : {
                "index" : 4
            },
            "name" : "Normal_emissive.007",
            "normalTexture" : {
                "index" : 5
            },
            "pbrMetallicRoughness" : {
                "baseColorTexture" : {
                    "index" : 6
                },
                "metallicFactor" : 0,
                "metallicRoughnessTexture" : {
                    "index" : 7
                },
                "roughnessFactor" : 0.30000001192092896
            }
        }
    ],
    "meshes" : [
        {
            "name" : "Mesh_0.006",
            "primitives" : [
                {
                    "attributes" : {
                        "POSITION" : 0,
                        "NORMAL" : 1,
                        "TANGENT" : 2,
                        "TEXCOORD_0" : 3,
                        "COLOR_0" : 4
                    },
                    "indices" : 5,
                    "material" : 0
                },
                {
                    "attributes" : {
                        "POSITION" : 6,
                        "NORMAL" : 7,
                        "TANGENT" : 8,
                        "TEXCOORD_0" : 9,
                        "COLOR_0" : 10
                    },
                    "indices" : 11,
                    "material" : 1
                }
            ]
        }
    ],
    "textures" : [
        {
            "sampler" : 0,
            "source" : 0
        },
        {
            "sampler" : 0,
            "source" : 1
        },
        {
            "sampler" : 0,
            "source" : 2
        },
        {
            "sampler" : 0,
            "source" : 3
        },
        {
            "sampler" : 0,
            "source" : 4
        },
        {
            "sampler" : 0,
            "source" : 1
        },
        {
            "sampler" : 0,
            "source" : 2
        },
        {
            "sampler" : 0,
            "source" : 3
        }
    ],
    "images" : [
        {
            "mimeType" : "image/png",
            "name" : "Emissive_map_0",
            "uri" : "Emissive_map_0.png"
        },
        {
            "mimeType" : "image/png",
            "name" : "normaltest",
            "uri" : "normaltest.png"
        },
        {
            "mimeType" : "image/png",
            "name" : "flat_C",
            "uri" : "flat_C.png"
        },
        {
            "mimeType" : "image/png",
            "name" : "flat_C1",
            "uri" : "flat_C1.png"
        },
        {
            "mimeType" : "image/png",
            "name" : "Emissive_map_1",
            "uri" : "Emissive_map_1.png"
        }
    ],
    "accessors" : [
        {
            "bufferView" : 0,
            "componentType" : 5126,
            "count" : 145623,
            "max" : [
                92.5,
                1.899999976158142,
                61.5
            ],
            "min" : [
                -62.5,
                -20.236980438232422,
                -93.5
            ],
            "type" : "VEC3"
        },
        {
            "bufferView" : 1,
            "componentType" : 5126,
            "count" : 145623,
            "type" : "VEC3"
        },
        {
            "bufferView" : 2,
            "componentType" : 5126,
            "count" : 145623,
            "type" : "VEC4"
        },
        {
            "bufferView" : 3,
            "componentType" : 5126,
            "count" : 145623,
            "type" : "VEC2"
        },
        {
            "bufferView" : 4,
            "componentType" : 5123,
            "count" : 145623,
            "normalized" : true,
            "type" : "VEC4"
        },
        {
            "bufferView" : 5,
            "componentType" : 5125,
            "count" : 145623,
            "type" : "SCALAR"
        },
        {
            "bufferView" : 6,
            "componentType" : 5126,
            "count" : 8298,
            "max" : [
                28.13949966430664,
                1.899999976158142,
                -2
            ],
            "min" : [
                1.8604999780654907,
                -18.915002822875977,
                -30
            ],
            "type" : "VEC3"
        },
        {
            "bufferView" : 7,
            "componentType" : 5126,
            "count" : 8298,
            "type" : "VEC3"
        },
        {
            "bufferView" : 8,
            "componentType" : 5126,
            "count" : 8298,
            "type" : "VEC4"
        },
        {
            "bufferView" : 9,
            "componentType" : 5126,
            "count" : 8298,
            "type" : "VEC2"
        },
        {
            "bufferView" : 10,
            "componentType" : 5123,
            "count" : 8298,
            "normalized" : true,
            "type" : "VEC4"
        },
        {
            "bufferView" : 11,
            "componentType" : 5123,
            "count" : 8298,
            "type" : "SCALAR"
        }
    ],
    "bufferViews" : [
        {
            "buffer" : 0,
            "byteLength" : 1747476,
            "byteOffset" : 0
        },
        {
            "buffer" : 0,
            "byteLength" : 1747476,
            "byteOffset" : 1747476
        },
        {
            "buffer" : 0,
            "byteLength" : 2329968,
            "byteOffset" : 3494952
        },
        {
            "buffer" : 0,
            "byteLength" : 1164984,
            "byteOffset" : 5824920
        },
        {
            "buffer" : 0,
            "byteLength" : 1164984,
            "byteOffset" : 6989904
        },
        {
            "buffer" : 0,
            "byteLength" : 582492,
            "byteOffset" : 8154888
        },
        {
            "buffer" : 0,
            "byteLength" : 99576,
            "byteOffset" : 8737380
        },
        {
            "buffer" : 0,
            "byteLength" : 99576,
            "byteOffset" : 8836956
        },
        {
            "buffer" : 0,
            "byteLength" : 132768,
            "byteOffset" : 8936532
        },
        {
            "buffer" : 0,
            "byteLength" : 66384,
            "byteOffset" : 9069300
        },
        {
            "buffer" : 0,
            "byteLength" : 66384,
            "byteOffset" : 9135684
        },
        {
            "buffer" : 0,
            "byteLength" : 16596,
            "byteOffset" : 9202068
        }
    ],
    "samplers" : [
        {
            "magFilter" : 9729,
            "minFilter" : 9987
        }
    ],
    "buffers" : [
        {
            "byteLength" : 9218664,
            "uri" : "Level1.bin"
        }
    ]
}
