{"asset":{"version":"2.0","generator":"babylon.js glTF exporter for Maya 2018 v20210115.1"},"extensionsUsed":["KHR_lights_punctual"],"scene":0,"scenes":[{"nodes":[0,1,2,3,4,5]}],"nodes":[{"mesh":0,"translation":[0.0,0.0,0.189685151],"scale":[5.23096943,5.23096943,5.23096943],"name":"Totem_test_shaders:Totem_Lowpoly:polySurface1","extras":{"currentUVSet":"map1"}},{"mesh":1,"translation":[0.161858231,0.0,0.0],"scale":[5.23096943,5.23096943,5.23096943],"name":"polySurface1","extras":{"currentUVSet":"map1"}},{"mesh":2,"translation":[-0.3649258,0.0274306983,-0.0461218022],"scale":[5.23096943,5.23096943,5.23096943],"name":"polySurface2","extras":{"currentUVSet":"map1"}},{"translation":[-0.0125318654,0.3410806,0.04663225],"rotation":[-0.2685978,-0.139960885,-0.00743175345,0.953001],"name":"Totem_test_shaders:directionalLight1","extensions":{"KHR_lights_punctual":{"light":0}}},{"translation":[-0.0576249175,0.0,-0.0386633873],"scale":[2.032814,2.032814,2.032814],"name":"pointLight1","extensions":{"KHR_lights_punctual":{"light":1}}},{"camera":0,"translation":[-0.431962162,0.168440133,0.21083124],"rotation":[-0.105873853,-0.498805,-0.053848505,0.858536363],"name":"camera1"}],"cameras":[{"perspective":{"yfov":0.6605947,"zfar":10000.0,"znear":0.1},"type":"perspective","name":"camera1"}],"meshes":[{"primitives":[{"attributes":{"POSITION":1,"TANGENT":2,"NORMAL":3,"TEXCOORD_0":4},"indices":0,"material":0}],"name":"Totem_test_shaders:Totem_Lowpoly:polySurface1"},{"primitives":[{"attributes":{"POSITION":6,"TANGENT":7,"NORMAL":8,"TEXCOORD_0":9},"indices":5,"material":0}],"name":"polySurface1"},{"primitives":[{"attributes":{"POSITION":11,"TANGENT":12,"NORMAL":13,"TEXCOORD_0":14},"indices":10,"material":0}],"name":"polySurface2"}],"accessors":[{"bufferView":0,"componentType":5123,"count":11445,"type":"SCALAR","name":"accessorIndices"},{"bufferView":1,"componentType":5126,"count":2375,"max":[0.0103008077,0.0481647253,0.0116565544],"min":[-0.0103008077,-0.0116440905,-0.0102055548],"type":"VEC3","name":"accessorPositions"},{"bufferView":2,"componentType":5126,"count":2375,"type":"VEC4","name":"accessorTangents"},{"bufferView":1,"byteOffset":28500,"componentType":5126,"count":2375,"type":"VEC3","name":"accessorNormals"},{"bufferView":3,"componentType":5126,"count":2375,"type":"VEC2","name":"accessorUVs"},{"bufferView":0,"byteOffset":22892,"componentType":5123,"count":11445,"type":"SCALAR","name":"accessorIndices"},{"bufferView":1,"byteOffset":57000,"componentType":5126,"count":2375,"max":[0.0103008077,0.0481647253,0.0116565544],"min":[-0.0103008077,-0.0116440905,-0.0102055548],"type":"VEC3","name":"accessorPositions"},{"bufferView":2,"byteOffset":38000,"componentType":5126,"count":2375,"type":"VEC4","name":"accessorTangents"},{"bufferView":1,"byteOffset":85500,"componentType":5126,"count":2375,"type":"VEC3","name":"accessorNormals"},{"bufferView":3,"byteOffset":19000,"componentType":5126,"count":2375,"type":"VEC2","name":"accessorUVs"},{"bufferView":0,"byteOffset":45784,"componentType":5123,"count":11445,"type":"SCALAR","name":"accessorIndices"},{"bufferView":1,"byteOffset":114000,"componentType":5126,"count":2375,"max":[0.0103008077,0.0481647253,0.0116565544],"min":[-0.0103008077,-0.0116440905,-0.0102055548],"type":"VEC3","name":"accessorPositions"},{"bufferView":2,"byteOffset":76000,"componentType":5126,"count":2375,"type":"VEC4","name":"accessorTangents"},{"bufferView":1,"byteOffset":142500,"componentType":5126,"count":2375,"type":"VEC3","name":"accessorNormals"},{"bufferView":3,"byteOffset":38000,"componentType":5126,"count":2375,"type":"VEC2","name":"accessorUVs"}],"bufferViews":[{"buffer":0,"byteLength":68676,"name":"bufferViewScalar"},{"buffer":0,"byteOffset":68676,"byteLength":171000,"byteStride":12,"name":"bufferViewFloatVec3"},{"buffer":0,"byteOffset":239676,"byteLength":114000,"byteStride":16,"name":"bufferViewFloatVec4"},{"buffer":0,"byteOffset":353676,"byteLength":57000,"byteStride":8,"name":"bufferViewFloatVec2"}],"buffers":[{"uri":"Totem.bin","byteLength":410676}],"materials":[{"pbrMetallicRoughness":{"baseColorFactor":[0.8,0.8,0.8,1.0],"baseColorTexture":{"index":2},"metallicRoughnessTexture":{"index":3}},"normalTexture":{"index":0},"emissiveTexture":{"index":1},"emissiveFactor":[1.0,1.0,1.0],"name":"Totem_test_shaders:aiStandardSurface1"}],"textures":[{"sampler":0,"source":0,"name":"Lowpoly_Totem_lambert1_Normal.png"},{"sampler":0,"source":1,"name":"Lowpoly_Totem_lambert1_Emissive.png"},{"sampler":0,"source":2,"name":"Lowpoly_Totem_lambert1_BaseColor.png"},{"sampler":0,"source":3,"name":"0Totem_test_shaders_file3.jpg"}],"images":[{"uri":"Lowpoly_Totem_lambert1_Normal.png"},{"uri":"Lowpoly_Totem_lambert1_Emissive.png"},{"uri":"Lowpoly_Totem_lambert1_BaseColor.png"},{"uri":"0Totem_test_shaders_file3.jpg"}],"samplers":[{"magFilter":9729,"minFilter":9987}],"extensions":{"KHR_lights_punctual":{"lights":[{"color":[1.0,1.0,0.0],"intensity":5.64935064,"type":"directional"},{"color":[1.0,0.0,0.0],"intensity":10.0,"type":"point"}]}}}