{
    "asset" : {
        "generator" : "Khronos glTF Blender I/O v1.5.17",
        "version" : "2.0"
    },
    "scene" : 0,
    "scenes" : [
        {
            "name" : "Scene",
            "nodes" : [
                3
            ]
        }
    ],
    "nodes" : [
        {
            "mesh" : 0,
            "name" : "lazer_lvl1_barrel"
        },
        {
            "mesh" : 1,
            "name" : "lazer_lvl1_main"
        },
        {
            "mesh" : 2,
            "name" : "lazer_lvl1_mid"
        },
        {
            "children" : [
                0,
                1,
                2
            ],
            "mesh" : 3,
            "name" : "lazer_lvl1_base",
            "rotation" : [
                0.7071068286895752,
                0,
                0,
                0.7071067094802856
            ],
            "scale" : [
                0.0030449999030679464,
                0.0030452494975179434,
                0.0030452494975179434
            ]
        }
    ],
    "materials" : [
        {
            "doubleSided" : true,
            "emissiveFactor" : [
                1,
                1,
                1
            ],
            "emissiveTexture" : {
                "index" : 0
            },
            "name" : "pasted__laser.005",
            "normalTexture" : {
                "index" : 1,
                "scale" : 0.6999998092651367
            },
            "pbrMetallicRoughness" : {
                "baseColorTexture" : {
                    "index" : 2
                },
                "metallicFactor" : 0.5,
                "roughnessFactor" : 0.5527864098548889
            }
        }
    ],
    "meshes" : [
        {
            "name" : "Mesh.011",
            "primitives" : [
                {
                    "attributes" : {
                        "POSITION" : 0,
                        "NORMAL" : 1,
                        "TANGENT" : 2,
                        "TEXCOORD_0" : 3
                    },
                    "indices" : 4,
                    "material" : 0
                }
            ]
        },
        {
            "name" : "Mesh.012",
            "primitives" : [
                {
                    "attributes" : {
                        "POSITION" : 5,
                        "NORMAL" : 6,
                        "TANGENT" : 7,
                        "TEXCOORD_0" : 8
                    },
                    "indices" : 9,
                    "material" : 0
                }
            ]
        },
        {
            "name" : "Mesh.013",
            "primitives" : [
                {
                    "attributes" : {
                        "POSITION" : 10,
                        "NORMAL" : 11,
                        "TANGENT" : 12,
                        "TEXCOORD_0" : 13
                    },
                    "indices" : 14,
                    "material" : 0
                }
            ]
        },
        {
            "name" : "Mesh.010",
            "primitives" : [
                {
                    "attributes" : {
                        "POSITION" : 15,
                        "NORMAL" : 16,
                        "TANGENT" : 17,
                        "TEXCOORD_0" : 18
                    },
                    "indices" : 19,
                    "material" : 0
                }
            ]
        }
    ],
    "textures" : [
        {
            "sampler" : 0,
            "source" : 0
        },
        {
            "sampler" : 0,
            "source" : 1
        },
        {
            "sampler" : 0,
            "source" : 2
        }
    ],
    "images" : [
        {
            "mimeType" : "image/png",
            "name" : "lazer_paint_laser_Emission",
            "uri" : "lazer_paint_laser_Emission.png"
        },
        {
            "mimeType" : "image/png",
            "name" : "lazer_paint_laser_Normal",
            "uri" : "lazer_paint_laser_Normal.png"
        },
        {
            "mimeType" : "image/png",
            "name" : "lazer_paint_laser_AlbedoTransparency_Green",
            "uri" : "lazer_paint_laser_AlbedoTransparency_Green.png"
        }
    ],
    "accessors" : [
        {
            "bufferView" : 0,
            "componentType" : 5126,
            "count" : 545,
            "max" : [
                46.451385498046875,
                125.0770034790039,
                -100.88018798828125
            ],
            "min" : [
                -46.451385498046875,
                63.72018814086914,
                -193.2708740234375
            ],
            "type" : "VEC3"
        },
        {
            "bufferView" : 1,
            "componentType" : 5126,
            "count" : 545,
            "type" : "VEC3"
        },
        {
            "bufferView" : 2,
            "componentType" : 5126,
            "count" : 545,
            "type" : "VEC4"
        },
        {
            "bufferView" : 3,
            "componentType" : 5126,
            "count" : 545,
            "type" : "VEC2"
        },
        {
            "bufferView" : 4,
            "componentType" : 5123,
            "count" : 1908,
            "type" : "SCALAR"
        },
        {
            "bufferView" : 5,
            "componentType" : 5126,
            "count" : 1260,
            "max" : [
                58.377105712890625,
                84.23207092285156,
                -76.11907958984375
            ],
            "min" : [
                -58.377105712890625,
                -66.34021759033203,
                -223.09490966796875
            ],
            "type" : "VEC3"
        },
        {
            "bufferView" : 6,
            "componentType" : 5126,
            "count" : 1260,
            "type" : "VEC3"
        },
        {
            "bufferView" : 7,
            "componentType" : 5126,
            "count" : 1260,
            "type" : "VEC4"
        },
        {
            "bufferView" : 8,
            "componentType" : 5126,
            "count" : 1260,
            "type" : "VEC2"
        },
        {
            "bufferView" : 9,
            "componentType" : 5123,
            "count" : 4464,
            "type" : "SCALAR"
        },
        {
            "bufferView" : 10,
            "componentType" : 5126,
            "count" : 476,
            "max" : [
                84.50977325439453,
                93.45578002929688,
                -45.152069091796875
            ],
            "min" : [
                -84.50977325439453,
                -75.56379699707031,
                -98.6630859375
            ],
            "type" : "VEC3"
        },
        {
            "bufferView" : 11,
            "componentType" : 5126,
            "count" : 476,
            "type" : "VEC3"
        },
        {
            "bufferView" : 12,
            "componentType" : 5126,
            "count" : 476,
            "type" : "VEC4"
        },
        {
            "bufferView" : 13,
            "componentType" : 5126,
            "count" : 476,
            "type" : "VEC2"
        },
        {
            "bufferView" : 14,
            "componentType" : 5123,
            "count" : 1248,
            "type" : "SCALAR"
        },
        {
            "bufferView" : 15,
            "componentType" : 5126,
            "count" : 440,
            "max" : [
                111.06536102294922,
                128.10877990722656,
                -1.6603319644927979
            ],
            "min" : [
                -111.06522369384766,
                -91.3902816772461,
                -46.920448303222656
            ],
            "type" : "VEC3"
        },
        {
            "bufferView" : 16,
            "componentType" : 5126,
            "count" : 440,
            "type" : "VEC3"
        },
        {
            "bufferView" : 17,
            "componentType" : 5126,
            "count" : 440,
            "type" : "VEC4"
        },
        {
            "bufferView" : 18,
            "componentType" : 5126,
            "count" : 440,
            "type" : "VEC2"
        },
        {
            "bufferView" : 19,
            "componentType" : 5123,
            "count" : 1428,
            "type" : "SCALAR"
        }
    ],
    "bufferViews" : [
        {
            "buffer" : 0,
            "byteLength" : 6540,
            "byteOffset" : 0
        },
        {
            "buffer" : 0,
            "byteLength" : 6540,
            "byteOffset" : 6540
        },
        {
            "buffer" : 0,
            "byteLength" : 8720,
            "byteOffset" : 13080
        },
        {
            "buffer" : 0,
            "byteLength" : 4360,
            "byteOffset" : 21800
        },
        {
            "buffer" : 0,
            "byteLength" : 3816,
            "byteOffset" : 26160
        },
        {
            "buffer" : 0,
            "byteLength" : 15120,
            "byteOffset" : 29976
        },
        {
            "buffer" : 0,
            "byteLength" : 15120,
            "byteOffset" : 45096
        },
        {
            "buffer" : 0,
            "byteLength" : 20160,
            "byteOffset" : 60216
        },
        {
            "buffer" : 0,
            "byteLength" : 10080,
            "byteOffset" : 80376
        },
        {
            "buffer" : 0,
            "byteLength" : 8928,
            "byteOffset" : 90456
        },
        {
            "buffer" : 0,
            "byteLength" : 5712,
            "byteOffset" : 99384
        },
        {
            "buffer" : 0,
            "byteLength" : 5712,
            "byteOffset" : 105096
        },
        {
            "buffer" : 0,
            "byteLength" : 7616,
            "byteOffset" : 110808
        },
        {
            "buffer" : 0,
            "byteLength" : 3808,
            "byteOffset" : 118424
        },
        {
            "buffer" : 0,
            "byteLength" : 2496,
            "byteOffset" : 122232
        },
        {
            "buffer" : 0,
            "byteLength" : 5280,
            "byteOffset" : 124728
        },
        {
            "buffer" : 0,
            "byteLength" : 5280,
            "byteOffset" : 130008
        },
        {
            "buffer" : 0,
            "byteLength" : 7040,
            "byteOffset" : 135288
        },
        {
            "buffer" : 0,
            "byteLength" : 3520,
            "byteOffset" : 142328
        },
        {
            "buffer" : 0,
            "byteLength" : 2856,
            "byteOffset" : 145848
        }
    ],
    "samplers" : [
        {
            "magFilter" : 9729,
            "minFilter" : 9987
        }
    ],
    "buffers" : [
        {
            "byteLength" : 148704,
            "uri" : "Laser_Green_0.bin"
        }
    ]
}
